<?xml version="1.0" encoding="UTF-8"?>
<svg version="1.1" xmlns="http://www.w3.org/2000/svg" width="1536" height="1024">
<path d="M0 0 C506.88 0 1013.76 0 1536 0 C1536 337.92 1536 675.84 1536 1024 C1029.12 1024 522.24 1024 0 1024 C0 686.08 0 348.16 0 0 Z " fill="#FEFAF6" transform="translate(0,0)"/>
<path d="M0 0 C1.58784302 0.00858032 1.58784302 0.00858032 3.20776367 0.01733398 C18.70483917 0.3695133 31.17100503 6.54395064 42.5 17.0625 C53.9887631 29.13574707 60.00708684 44.44323352 59.78344727 61.1015625 C59.05757326 78.10665315 51.80776903 92.96590552 39.3125 104.5 C29.35947761 112.2682126 18.7795894 116.11476784 6.3125 117.5 C6.3125 130.04 6.3125 142.58 6.3125 155.5 C8.9525 155.5 11.5925 155.5 14.3125 155.5 C16.66674805 155.7878418 16.66674805 155.7878418 18.57421875 156.19921875 C19.29407959 156.35374512 20.01394043 156.50827148 20.75561523 156.66748047 C21.86658569 156.92489014 21.86658569 156.92489014 23 157.1875 C23.78383057 157.36684082 24.56766113 157.54618164 25.37524414 157.73095703 C41.7727905 161.63984001 55.16555113 169.09593974 68.3125 179.5 C68.97121094 180.00273437 69.62992188 180.50546875 70.30859375 181.0234375 C75.81343332 185.42222385 80.02740025 190.94693848 84.3125 196.5 C84.92222656 197.28246094 85.53195312 198.06492187 86.16015625 198.87109375 C93.39508458 208.64401516 98.73585613 219.62801707 102.25 231.25 C102.44932129 231.89783447 102.64864258 232.54566895 102.85400391 233.21313477 C104.59706597 239.43957597 104.75129653 244.76555834 105.3125 251.5 C115.5425 251.5 125.7725 251.5 136.3125 251.5 C136.6425 248.2 136.9725 244.9 137.3125 241.5 C141.45538519 225.87083228 151.71147397 213.43442288 165.33203125 205.07421875 C179.8180428 197.42302261 195.20218559 196.60271863 210.78125 201.25390625 C225.46547994 206.43562013 236.72511692 216.20329301 243.6875 230.0625 C244.491875 231.7640625 244.491875 231.7640625 245.3125 233.5 C245.76625 234.4075 246.22 235.315 246.6875 236.25 C251.41606578 247.54601826 251.27812267 263.68069294 247.6875 275.3125 C246.56640625 278.01171875 246.56640625 278.01171875 245.3125 280.5 C244.88839844 281.35207031 244.46429687 282.20414063 244.02734375 283.08203125 C235.68753402 298.20519597 223.50515473 307.19021349 207.3125 312.5 C195.80241159 315.80533201 180.99274308 314.62651668 170.3125 309.5 C169.34957031 309.04109375 168.38664062 308.5821875 167.39453125 308.109375 C152.73723891 300.59281482 142.91136122 288.29658365 137.6875 272.625 C137.15845676 269.62708833 137.3125 266.54423408 137.3125 263.5 C126.7525 263.5 116.1925 263.5 105.3125 263.5 C105.3125 266.47 105.3125 269.44 105.3125 272.5 C102.00687238 299.20599153 87.68091666 324.21824146 66.92333984 341.24609375 C61.98317694 345.09160401 56.7134938 348.34839035 51.3125 351.5 C50.37148438 352.05429687 49.43046875 352.60859375 48.4609375 353.1796875 C42.34885675 356.50259337 35.99461531 358.74673847 29.375 360.8125 C28.57690918 361.06733154 27.77881836 361.32216309 26.95654297 361.5847168 C19.81271576 363.6973247 14.13021223 363.89863752 6.3125 364.5 C6.3125 378.36 6.3125 392.22 6.3125 406.5 C9.2825 406.83 12.2525 407.16 15.3125 407.5 C29.45961989 411.63067536 41.72852056 421.24406521 49.3203125 433.828125 C57.36118065 448.62151129 59.63213122 463.90154222 55.75 480.25 C51.20855054 495.38816487 41.8925197 507.45629557 28.3125 515.5 C18.9470957 520.42434787 10.41674902 522.85209926 -0.125 522.75 C-0.91970703 522.75773438 -1.71441406 522.76546875 -2.53320312 522.7734375 C-17.26392924 522.72549372 -30.08442432 516.89157615 -40.58203125 506.66796875 C-41.27683594 505.95253906 -41.97164063 505.23710938 -42.6875 504.5 C-43.24824219 503.95988281 -43.80898438 503.41976563 -44.38671875 502.86328125 C-56.31952002 490.42936496 -58.2843501 474.45040244 -58 458.09375 C-57.74420113 451.66467183 -56.53583033 446.28484426 -53.6875 440.5 C-53.24019531 439.55125 -52.79289062 438.6025 -52.33203125 437.625 C-44.70215492 422.56980167 -32.35635049 413.42594423 -16.6171875 407.75390625 C-13.07816831 406.64317512 -10.49324377 406.5 -6.6875 406.5 C-6.6875 392.64 -6.6875 378.78 -6.6875 364.5 C-11.9675 363.84 -17.2475 363.18 -22.6875 362.5 C-25.85346907 361.71907754 -28.71841868 360.96215997 -31.75 359.875 C-32.49475586 359.61485107 -33.23951172 359.35470215 -34.00683594 359.08666992 C-47.54140073 354.17325991 -58.82653397 346.88190256 -69.6875 337.5 C-70.80898438 336.53320312 -70.80898438 336.53320312 -71.953125 335.546875 C-90.47135913 318.23307887 -102.65198916 291.78507563 -103.77832031 266.45776367 C-103.82072473 264.36638748 -103.82692247 262.27923924 -103.8125 260.1875 C-103.80766602 259.44258301 -103.80283203 258.69766602 -103.79785156 257.93017578 C-103.48843613 229.35875477 -92.42429419 205.7211327 -72.6875 185.5 C-71.79804688 184.51773438 -71.79804688 184.51773438 -70.890625 183.515625 C-56.8677875 168.38206769 -33.97632614 157.89805721 -13.6875 155.5 C-11.0475 155.5 -8.4075 155.5 -5.6875 155.5 C-6.0175 142.96 -6.3475 130.42 -6.6875 117.5 C-10.9775 116.51 -15.2675 115.52 -19.6875 114.5 C-28.70292712 110.8863397 -35.91177782 105.37445766 -42.6875 98.5 C-43.26113281 97.93667969 -43.83476562 97.37335938 -44.42578125 96.79296875 C-55.12098925 85.43449204 -58.25140276 70.53557629 -58.1730957 55.48071289 C-57.66834642 38.82990723 -50.2786188 25.5710492 -38.375 14.0625 C-32.9796844 9.4142281 -27.28166117 6.15253852 -20.6875 3.5 C-20.04095459 3.23364746 -19.39440918 2.96729492 -18.72827148 2.69287109 C-12.47696014 0.33364764 -6.64390877 -0.04169928 0 0 Z " fill="#175284" transform="translate(495.6875,234.5)"/>
<path d="M0 0 C1.58784302 0.00858032 1.58784302 0.00858032 3.20776367 0.01733398 C18.70483917 0.3695133 31.17100503 6.54395064 42.5 17.0625 C53.9887631 29.13574707 60.00708684 44.44323352 59.78344727 61.1015625 C59.05757326 78.10665315 51.80776903 92.96590552 39.3125 104.5 C29.35947761 112.2682126 18.7795894 116.11476784 6.3125 117.5 C6.3125 130.04 6.3125 142.58 6.3125 155.5 C2.3525 155.5 -1.6075 155.5 -5.6875 155.5 C-6.0175 142.96 -6.3475 130.42 -6.6875 117.5 C-10.9775 116.51 -15.2675 115.52 -19.6875 114.5 C-28.70292712 110.8863397 -35.91177782 105.37445766 -42.6875 98.5 C-43.26113281 97.93667969 -43.83476562 97.37335938 -44.42578125 96.79296875 C-55.12098925 85.43449204 -58.25140276 70.53557629 -58.1730957 55.48071289 C-57.66834642 38.82990723 -50.2786188 25.5710492 -38.375 14.0625 C-32.9796844 9.4142281 -27.28166117 6.15253852 -20.6875 3.5 C-20.04095459 3.23364746 -19.39440918 2.96729492 -18.72827148 2.69287109 C-12.47696014 0.33364764 -6.64390877 -0.04169928 0 0 Z " fill="#368E50" transform="translate(495.6875,234.5)"/>
<path d="M0 0 C4.29 0 8.58 0 13 0 C13 13.86 13 27.72 13 42 C15.97 42.33 18.94 42.66 22 43 C36.14711989 47.13067536 48.41602056 56.74406521 56.0078125 69.328125 C64.04868065 84.12151129 66.31963122 99.40154222 62.4375 115.75 C57.89605054 130.88816487 48.5800197 142.95629557 35 151 C25.6345957 155.92434787 17.10424902 158.35209926 6.5625 158.25 C5.76779297 158.25773438 4.97308594 158.26546875 4.15429688 158.2734375 C-10.57642924 158.22549372 -23.39692432 152.39157615 -33.89453125 142.16796875 C-34.93673828 141.09482422 -34.93673828 141.09482422 -36 140 C-36.56074219 139.45988281 -37.12148438 138.91976562 -37.69921875 138.36328125 C-49.63202002 125.92936496 -51.5968501 109.95040244 -51.3125 93.59375 C-51.05670113 87.16467183 -49.84833033 81.78484426 -47 76 C-46.55269531 75.05125 -46.10539062 74.1025 -45.64453125 73.125 C-38.01465492 58.06980167 -25.66885049 48.92594423 -9.9296875 43.25390625 C-6.39066831 42.14317512 -3.80574377 42 0 42 C0 28.14 0 14.28 0 0 Z " fill="#179496" transform="translate(489,599)"/>
<path d="M0 0 C13.86785504 8.98258793 23.83171139 21.67998221 28.125 37.75 C28.8125 41.3125 28.8125 41.3125 28.8125 45.3125 C45.6425 45.3125 62.4725 45.3125 79.8125 45.3125 C79.8125 49.2725 79.8125 53.2325 79.8125 57.3125 C62.9825 57.3125 46.1525 57.3125 28.8125 57.3125 C28.1525 60.9425 27.4925 64.5725 26.8125 68.3125 C25.73405522 71.14606079 24.69521259 73.65419838 23.3125 76.3125 C22.9621167 76.99183594 22.6117334 77.67117188 22.25073242 78.37109375 C15.06991086 91.69094335 4.00449611 100.51855041 -10.125 105.8125 C-24.90794057 109.81322299 -41.52180873 108.95153832 -54.90087891 101.33740234 C-69.07369286 92.84800188 -78.87652916 80.42653494 -83.3984375 64.4375 C-84.45744247 59.7631729 -84.48112909 55.14874995 -84.4375 50.375 C-84.44523438 49.53259766 -84.45296875 48.69019531 -84.4609375 47.82226562 C-84.41541662 33.03935833 -78.7763047 20.08094741 -68.5 9.4921875 C-49.69297698 -8.23470244 -23.0000835 -12.74233021 0 0 Z " fill="#E57031" transform="translate(312.1875,440.6875)"/>
<path d="M0 0 C5.37100984 -0.1245596 10.74116011 -0.21478702 16.11328125 -0.2746582 C17.93667262 -0.29964279 19.75996548 -0.33364279 21.58300781 -0.37719727 C41.69389078 -0.84527641 41.69389078 -0.84527641 49 5 C53.94521034 9.99351894 55.37654667 14.13614961 55.5625 21.1875 C55.46346453 27.07020681 54.2377749 31.35387202 50.39453125 35.8984375 C48.19726562 37.94921875 48.19726562 37.94921875 46 40 C46.54269531 40.39832031 47.08539062 40.79664063 47.64453125 41.20703125 C48.35996094 41.73683594 49.07539062 42.26664063 49.8125 42.8125 C50.52019531 43.33457031 51.22789062 43.85664062 51.95703125 44.39453125 C55.64120636 47.28974343 57.60267427 49.42930836 59 54 C59.84905206 62.17459421 59.85968111 70.09485989 55 77 C49.95758468 82.9370374 44.62391735 85.64425361 37 87 C31.64942283 87.42081168 26.28243791 87.34955862 20.91967773 87.28125 C18.4117976 87.24967641 15.90454496 87.24022869 13.39648438 87.234375 C11.80467975 87.22521975 10.21288153 87.21484874 8.62109375 87.203125 C7.87016953 87.19887512 7.1192453 87.19462524 6.3455658 87.19024658 C1.11727826 87.11727826 1.11727826 87.11727826 0 86 C-0.09512944 83.32212027 -0.12555279 80.67011131 -0.11352539 77.99194336 C-0.11367142 77.15299026 -0.11381744 76.31403717 -0.1139679 75.44966125 C-0.1132685 72.66302956 -0.10547485 69.87646384 -0.09765625 67.08984375 C-0.09579217 65.16313209 -0.09436822 63.23641995 -0.09336853 61.30970764 C-0.08954259 56.22812603 -0.07971166 51.1465728 -0.06866455 46.06500244 C-0.05845206 40.88383366 -0.05387126 35.70266031 -0.04882812 30.52148438 C-0.03808946 20.34764375 -0.02101213 10.17382423 0 0 Z " fill="#164F82" transform="translate(764,472)"/>
<path d="M0 0 C8.24429154 4.21047746 11.961069 11.71367838 14.7734375 20.20703125 C16.88497614 31.58145168 15.95300633 44.34195629 9.421875 54.06640625 C4.50932714 60.09104663 0.16061232 62.87694688 -7.515625 63.7421875 C-13.86276121 64.03699984 -17.65389116 63.13824112 -22.8125 59.4375 C-23.3075 58.9425 -23.3075 58.9425 -23.8125 58.4375 C-24.1425 67.3475 -24.4725 76.2575 -24.8125 85.4375 C-35.65234375 85.53515625 -35.65234375 85.53515625 -38.8125 85.4375 C-40.56176195 83.68823805 -39.94486718 81.39955908 -39.95913696 79.06800842 C-39.95868378 78.29863449 -39.95823059 77.52926056 -39.95776367 76.73657227 C-39.96112228 75.93009247 -39.9644809 75.12361267 -39.96794128 74.29269409 C-39.97748015 71.6130827 -39.97939586 68.93353359 -39.98046875 66.25390625 C-39.98367928 64.39924595 -39.98704319 62.5445859 -39.99055481 60.68992615 C-39.99655343 56.79677747 -39.99839396 52.90365102 -39.99780273 49.01049805 C-39.99770107 44.01211322 -40.01135475 39.01387031 -40.02857494 34.01551914 C-40.03967182 30.18348023 -40.04172266 26.35147587 -40.04119301 22.51942253 C-40.04237657 20.67616219 -40.04681924 18.83290106 -40.05452538 16.98965645 C-40.06427886 14.41560948 -40.06146576 11.84187382 -40.05541992 9.26782227 C-40.06103943 8.50047256 -40.06665894 7.73312286 -40.07244873 6.94252014 C-40.04081554 1.66581554 -40.04081554 1.66581554 -37.8125 -0.5625 C-35.31640625 -0.8984375 -35.31640625 -0.8984375 -32.375 -0.9375 C-30.92287109 -0.98003906 -30.92287109 -0.98003906 -29.44140625 -1.0234375 C-26.8125 -0.5625 -26.8125 -0.5625 -24.96484375 1.4609375 C-24.39443359 2.43933594 -24.39443359 2.43933594 -23.8125 3.4375 C-23.049375 2.798125 -22.28625 2.15875 -21.5 1.5 C-15.42262762 -3.16402996 -6.93127609 -2.75368184 0 0 Z " fill="#175183" transform="translate(988.8125,382.5625)"/>
<path d="M0 0 C4.83537279 0.0731893 6.80128151 0.28339679 10.22265625 3.78515625 C12.48665849 7.18325375 14.3386473 10.80264713 16.1875 14.43896484 C17.6801316 17.2869441 19.28925017 20.04005477 20.9375 22.80078125 C28.23878751 35.03240055 34.91175785 47.42608991 41.5625 60.0625 C41.8925 40.5925 42.2225 21.1225 42.5625 1.0625 C47.1825 1.0625 51.8025 1.0625 56.5625 1.0625 C56.58562283 12.12784858 56.60341478 23.19319145 56.61431217 34.25855923 C56.61954113 39.39609566 56.62663901 44.53361563 56.63793945 49.67114258 C56.64876787 54.6248141 56.65477674 59.57846974 56.65737724 64.53215218 C56.65923157 66.42647616 56.66285234 68.32079924 56.66823006 70.2151165 C56.67543989 72.85884386 56.67649097 75.50250471 56.67602539 78.14624023 C56.67962067 78.93745773 56.68321594 79.72867523 56.68692017 80.54386902 C56.67655216 85.94844784 56.67655216 85.94844784 55.5625 87.0625 C50.8130879 88.53124883 46.16495722 89.24149787 41.5625 87.0625 C36.53982568 82.12879876 33.49221061 75.3615613 30.24511719 69.19873047 C28.53819896 66.01720529 26.73394235 62.91600634 24.8828125 59.81640625 C18.66238818 49.39703302 13.00705709 38.95161417 7.5625 28.0625 C7.2325 47.5325 6.9025 67.0025 6.5625 87.0625 C2.2725 87.0625 -2.0175 87.0625 -6.4375 87.0625 C-8.20078472 85.29921528 -7.56365644 82.96732856 -7.57302856 80.61843872 C-7.57100433 79.83814301 -7.5689801 79.05784729 -7.56689453 78.25390625 C-7.56864685 77.43606659 -7.57039917 76.61822693 -7.57220459 75.77560425 C-7.57662385 73.0587149 -7.57368486 70.34189007 -7.5703125 67.625 C-7.57098552 65.74552396 -7.57195553 63.86604801 -7.57321167 61.98657227 C-7.57468874 58.04214654 -7.57253379 54.09774342 -7.56787109 50.15332031 C-7.5621738 45.08537497 -7.56545276 40.01748258 -7.57144356 34.94953918 C-7.57504892 31.06693113 -7.5739107 27.18433572 -7.57131577 23.30172729 C-7.57064643 21.43252557 -7.57147516 19.56332272 -7.57379532 17.69412231 C-7.57632143 15.08641496 -7.57248184 12.47879459 -7.56689453 9.87109375 C-7.56891876 9.09079803 -7.57094299 8.31050232 -7.57302856 7.50656128 C-7.54627893 0.80243362 -6.64763951 0.73703646 0 0 Z " fill="#164F82" transform="translate(771.4375,580.9375)"/>
<path d="M0 0 C0.94109619 0.47840332 1.88219238 0.95680664 2.85180664 1.44970703 C3.89143555 1.97435547 4.93106445 2.49900391 6.00219727 3.03955078 C7.61578125 3.86519531 7.61578125 3.86519531 9.26196289 4.70751953 C10.33381836 5.25021484 11.40567383 5.79291016 12.51000977 6.35205078 C14.51457847 7.36736793 16.51790052 8.38515304 18.51953125 9.40625 C20.54412289 10.43572727 22.57733398 11.4483139 24.61572266 12.45019531 C27.32446289 13.83251953 27.32446289 13.83251953 28.32446289 14.83251953 C28.36527072 16.83210317 28.36700645 18.83297207 28.32446289 20.83251953 C26.67446289 21.49251953 25.02446289 22.15251953 23.32446289 22.83251953 C23.32446289 33.39251953 23.32446289 43.95251953 23.32446289 54.83251953 C24.80946289 55.32751953 24.80946289 55.32751953 26.32446289 55.83251953 C4.54446289 55.83251953 -17.23553711 55.83251953 -39.67553711 55.83251953 C-39.67553711 55.50251953 -39.67553711 55.17251953 -39.67553711 54.83251953 C-34.72553711 54.50251953 -29.77553711 54.17251953 -24.67553711 53.83251953 C-24.67553711 53.50251953 -24.67553711 53.17251953 -24.67553711 52.83251953 C-27.97553711 52.83251953 -31.27553711 52.83251953 -34.67553711 52.83251953 C-34.64935303 52.00526367 -34.62316895 51.17800781 -34.59619141 50.32568359 C-34.4922688 46.57815535 -34.42722222 42.83093003 -34.36303711 39.08251953 C-34.32114258 37.78056641 -34.27924805 36.47861328 -34.23608398 35.13720703 C-34.2199707 33.88681641 -34.20385742 32.63642578 -34.18725586 31.34814453 C-34.16107178 30.19604492 -34.1348877 29.04394531 -34.10791016 27.85693359 C-34.84987417 23.90362167 -36.48204175 23.1081518 -39.67553711 20.83251953 C-40.48803711 17.58251953 -40.48803711 17.58251953 -40.67553711 14.83251953 C-34.03275623 10.47951574 -27.12950537 6.92182033 -19.98803711 3.45751953 C-18.87364258 2.89935547 -17.75924805 2.34119141 -16.61108398 1.76611328 C-15.53536133 1.24404297 -14.45963867 0.72197266 -13.35131836 0.18408203 C-12.38105713 -0.29206543 -11.4107959 -0.76821289 -10.41113281 -1.25878906 C-6.28381151 -2.62977433 -3.89382887 -1.69908656 0 0 Z " fill="#368E51" transform="translate(502.675537109375,260.16748046875)"/>
<path d="M0 0 C2.53947612 2.06332435 4.27221137 4.23013884 6 7 C6.4125 7.65097656 6.825 8.30195313 7.25 8.97265625 C12.1052099 18.53135073 11.54736227 32.70558355 8.75 42.875 C5.75854184 50.7919288 1.02182886 55.9172672 -6.5 59.8125 C-14.2188673 62.37066866 -23.0904486 62.32888078 -30.5 58.9375 C-37.46480282 54.87755747 -41.35739031 49.5105749 -44 42 C-46.71388714 31.39290589 -46.435981 18.579491 -41 9 C-40.46375 7.9275 -39.9275 6.855 -39.375 5.75 C-29.68204215 -5.47342488 -12.60122061 -7.58323454 0 0 Z " fill="#175082" transform="translate(869,385)"/>
<path d="M0 0 C7.10610726 3.74493176 11.52758696 10.03608937 14.0625 17.5 C16.71993217 28.28050498 16.09663797 40.55017437 11.0625 50.5 C7.10031724 56.46288891 2.17645707 60.84383885 -4.72265625 63.078125 C-12.2374551 64.50951526 -20.66522736 64.77508409 -27.3359375 60.6875 C-33.19930826 56.3400251 -37.53879744 50.39985738 -39.55859375 43.32421875 C-40.99680634 32.6043455 -41.80100443 19.96731944 -35.9375 10.5 C-35.2775 9.4275 -34.6175 8.355 -33.9375 7.25 C-25.28385414 -1.95600623 -11.63242111 -4.39183246 0 0 Z " fill="#175082" transform="translate(925.9375,382.5)"/>
<path d="M0 0 C1.22692154 0.61400714 2.44640149 1.24305774 3.65893555 1.88500977 C4.31016891 2.21557877 4.96140228 2.54614777 5.63237 2.88673401 C7.69380434 3.93689751 9.7445922 5.00616039 11.7956543 6.07641602 C13.19147632 6.79190237 14.58795554 7.50610814 15.98510742 8.21899414 C18.53198311 9.52094529 21.07505427 10.82970425 23.61328125 12.1484375 C25.23132678 12.98877505 26.85239042 13.82353408 28.4831543 14.63891602 C28.8581543 16.88891602 28.8581543 16.88891602 28.4831543 19.63891602 C25.4831543 21.95141602 25.4831543 21.95141602 22.4831543 23.63891602 C22.8131543 23.96891602 23.1431543 24.29891602 23.4831543 24.63891602 C23.57091035 26.78450428 23.59010649 28.93296023 23.58081055 31.08032227 C23.57597656 33.03808594 23.57597656 33.03808594 23.57104492 35.03540039 C23.56268831 36.42407291 23.55422335 37.81274479 23.5456543 39.20141602 C23.54064096 40.59399257 23.53607776 41.98657083 23.53198242 43.37915039 C23.52014864 46.79911472 23.5036631 50.21899446 23.4831543 53.63891602 C22.4931543 54.13391602 22.4931543 54.13391602 21.4831543 54.63891602 C22.2669043 54.72141602 23.0506543 54.80391602 23.8581543 54.88891602 C26.4831543 55.63891602 26.4831543 55.63891602 27.8581543 57.45141602 C28.57723367 59.96819381 28.40291553 61.21409096 27.4831543 63.63891602 C25.63518229 65.48688803 22.61519353 64.76667548 20.14331055 64.76831055 C19.15063675 64.77093903 19.15063675 64.77093903 18.13790894 64.77362061 C15.9404644 64.77803819 13.74309971 64.77510148 11.5456543 64.77172852 C10.02490219 64.77240158 8.50415018 64.77337163 6.98339844 64.77462769 C3.79222593 64.77610453 0.60108137 64.77395054 -2.59008789 64.76928711 C-6.68949101 64.76358982 -10.78882866 64.7668689 -14.88822937 64.77285957 C-18.02966814 64.77646555 -21.17109128 64.77532643 -24.31253052 64.77273178 C-25.82447314 64.77206261 -27.33641716 64.77289058 -28.84835815 64.77521133 C-30.95794457 64.77773847 -33.06742358 64.77389645 -35.17700195 64.76831055 C-36.37977783 64.76751495 -37.58255371 64.76671936 -38.82177734 64.76589966 C-41.5168457 64.63891602 -41.5168457 64.63891602 -42.5168457 63.63891602 C-42.81070723 59.91667002 -42.66493742 58.86105358 -40.5168457 55.63891602 C-37.62768555 55.20654297 -37.62768555 55.20654297 -33.9777832 55.12719727 C-32.67583008 55.09174805 -31.37387695 55.05629883 -30.0324707 55.01977539 C-28.65226761 54.9966737 -27.27205914 54.97389137 -25.8918457 54.95141602 C-24.50379219 54.91825157 -23.11576964 54.88376271 -21.7277832 54.84790039 C-18.32421864 54.76517486 -14.9209198 54.69610345 -11.5168457 54.63891602 C-12.1768457 54.30891602 -12.8368457 53.97891602 -13.5168457 53.63891602 C-13.54150316 49.52719042 -13.55968529 45.41549324 -13.57177734 41.30371094 C-13.5768165 39.90396373 -13.58364787 38.50422181 -13.59228516 37.10449219 C-13.6043689 35.09645825 -13.60954377 33.08838644 -13.61450195 31.08032227 C-13.61973877 29.87061768 -13.62497559 28.66091309 -13.63037109 27.41455078 C-13.5168457 24.63891602 -13.5168457 24.63891602 -12.5168457 23.63891602 C-13.28875244 23.61909668 -14.06065918 23.59927734 -14.85595703 23.57885742 C-18.34743529 23.48370459 -21.83830722 23.37398554 -25.3293457 23.26391602 C-27.15175781 23.21750977 -27.15175781 23.21750977 -29.01098633 23.17016602 C-30.17436523 23.13149414 -31.33774414 23.09282227 -32.53637695 23.05297852 C-34.146698 23.00584717 -34.146698 23.00584717 -35.78955078 22.95776367 C-38.5168457 22.63891602 -38.5168457 22.63891602 -41.5168457 20.63891602 C-42.0168457 18.26391602 -42.0168457 18.26391602 -41.5168457 15.63891602 C-36.2640036 10.86921668 -29.92970009 8.05021297 -23.6418457 4.88891602 C-22.48297852 4.28692383 -21.32411133 3.68493164 -20.13012695 3.06469727 C-18.43823242 2.21198242 -18.43823242 2.21198242 -16.7121582 1.34204102 C-15.69138184 0.82287109 -14.67060547 0.30370117 -13.61889648 -0.23120117 C-8.57683235 -2.06770934 -4.997597 -1.93416198 0 0 Z " fill="#118D91" transform="translate(502.516845703125,665.361083984375)"/>
<path d="M0 0 C7.06443352 2.43269403 10.99796551 6.11156066 14.3203125 12.56640625 C19.08478096 22.57333191 19.40816665 36.18445561 15.9453125 46.69140625 C13.01946945 53.27966823 8.86798283 58.5776862 2.4453125 62.00390625 C-5.36566745 64.97634401 -14.35696244 64.90117833 -21.9921875 61.50390625 C-29.50335562 57.12547492 -32.97552768 50.58370884 -35.4921875 42.50390625 C-37.91178215 32.36546389 -37.46433862 21.76088172 -32.4921875 12.50390625 C-28.69338387 6.92793954 -24.51446869 3.45600487 -18.4921875 0.50390625 C-13.40664209 -2.03886646 -5.45577813 -1.0860248 0 0 Z " fill="#175082" transform="translate(1051.4921875,605.49609375)"/>
<path d="M0 0 C2.74344907 1.76037982 4.79718129 3.69752008 6.875 6.203125 C7.596875 7.028125 8.31875 7.853125 9.0625 8.703125 C12.06349251 12.84242502 13.16716377 16.09025895 12.875 21.203125 C7.51060356 23.88532322 3.86493047 24.5183845 -2.125 24.203125 C-2.49625 23.15125 -2.8675 22.099375 -3.25 21.015625 C-5.02974021 17.03547872 -7.01835253 13.95426147 -11.125 12.203125 C-17.00855684 11.34978469 -22.20840944 11.36251511 -27.6875 13.765625 C-35.74884109 21.82696609 -36.50892137 31.39808519 -36.5625 42.328125 C-36.59537109 43.48828125 -36.62824219 44.6484375 -36.66210938 45.84375 C-36.71251619 54.03714829 -35.50078523 61.14267927 -31.125 68.203125 C-26.09488368 72.69386681 -22.04846269 74.65143055 -15.1796875 74.45703125 C-9.77134164 73.78869954 -5.49622817 71.41716022 -2.125 67.203125 C-1.06488057 65.23433177 -0.05029151 63.23876633 0.875 61.203125 C11.075 62.403125 11.075 62.403125 13.875 65.203125 C13.71379071 73.10238025 9.46445361 77.61367139 4.0625 83.015625 C-4.08221166 88.605133 -14.40865595 90.13370443 -24.125 89.203125 C-34.23814504 87.22852676 -41.91318201 82.38923268 -47.75 73.81640625 C-49.09909115 71.32299671 -50.14818588 68.86355371 -51.125 66.203125 C-51.60066406 64.96949219 -51.60066406 64.96949219 -52.0859375 63.7109375 C-54.27639306 56.77784422 -54.43251335 49.85016078 -54.5 42.640625 C-54.52090698 41.20456909 -54.52090698 41.20456909 -54.54223633 39.73950195 C-54.46111998 27.4298332 -50.94355589 15.11119524 -42.5 5.890625 C-31.37380005 -4.24840748 -13.72310934 -6.7662553 0 0 Z " fill="#185083" transform="translate(805.125,357.796875)"/>
<path d="M0 0 C2.12438339 -0.08078641 4.2496323 -0.13909141 6.375 -0.1875 C7.55835938 -0.22230469 8.74171875 -0.25710938 9.9609375 -0.29296875 C11.46527344 -0.14794922 11.46527344 -0.14794922 13 0 C15.31033841 3.46550762 15.91622365 6.65288006 16.69140625 10.66015625 C16.841577 11.40583359 16.99174774 12.15151093 17.14646912 12.91978455 C17.62478725 15.29947995 18.09414332 17.68082577 18.5625 20.0625 C19.03574483 22.44745226 19.51089529 24.83199293 19.98924255 27.21592712 C20.28635544 28.69880449 20.58028733 30.18232343 20.8707428 31.66651917 C21.59940317 35.44099475 21.59940317 35.44099475 23 39 C23.40109985 37.43318481 23.40109985 37.43318481 23.81030273 35.8347168 C24.80254089 31.95992556 25.79619741 28.08549923 26.7902832 24.21118164 C27.22035814 22.53419762 27.6500482 20.85711485 28.0793457 19.17993164 C28.69641619 16.76943319 29.3148692 14.35929309 29.93359375 11.94921875 C30.12529648 11.19912033 30.31699921 10.44902191 30.51451111 9.67619324 C31.26689415 6.74997872 32.04418104 3.86745689 33 1 C35.30209632 -0.15104816 36.87405536 -0.26555901 39.4375 -0.375 C40.21996094 -0.42398438 41.00242187 -0.47296875 41.80859375 -0.5234375 C44 0 44 0 45.49560547 2.05102539 C47.25569773 5.50122896 48.29037522 8.97959721 49.26171875 12.70703125 C49.45723831 13.43242599 49.65275787 14.15782074 49.85420227 14.90519714 C50.47252529 17.20576921 51.08015252 19.5090089 51.6875 21.8125 C52.10671686 23.37974604 52.52663149 24.94680562 52.94726562 26.51367188 C53.97293113 30.34033729 54.98901868 34.16943016 56 38 C57.54811507 33.5999383 58.69285618 29.22299853 59.69140625 24.66796875 C59.99934073 23.27929505 60.30728368 21.89062323 60.61523438 20.50195312 C61.09238351 18.33167821 61.56827533 16.16113155 62.04370117 13.99047852 C62.50658817 11.88229671 62.97382677 9.77511388 63.44140625 7.66796875 C63.71670166 6.41266357 63.99199707 5.1573584 64.27563477 3.86401367 C65 1 65 1 66 0 C68.18639453 -0.07258946 70.37500389 -0.08373783 72.5625 -0.0625 C74.35880859 -0.04896484 74.35880859 -0.04896484 76.19140625 -0.03515625 C77.11824219 -0.02355469 78.04507813 -0.01195312 79 0 C78.33187199 6.79577272 76.82254512 13.22399301 75.12890625 19.83203125 C74.84651596 20.94559494 74.56412567 22.05915863 74.2731781 23.20646667 C73.67795636 25.54768727 73.08025967 27.88827988 72.48022461 30.22827148 C71.56154638 33.81622444 70.65434465 37.40694927 69.74804688 40.99804688 C69.16735485 43.27621719 68.58599784 45.55421813 68.00390625 47.83203125 C67.59755699 49.44450493 67.59755699 49.44450493 67.18299866 51.08955383 C66.92610764 52.08456406 66.66921661 53.07957428 66.40454102 54.10473633 C66.18105484 54.97995438 65.95756866 55.85517242 65.72731018 56.75691223 C65 59 65 59 63 62 C60.1796875 62.29296875 60.1796875 62.29296875 56.875 62.1875 C55.23144531 62.14689453 55.23144531 62.14689453 53.5546875 62.10546875 C52.71164062 62.07066406 51.86859375 62.03585937 51 62 C47.98709655 54.55301224 45.95930453 46.87321683 43.875 39.125 C43.16668125 36.50187857 42.4550644 33.87970431 41.7421875 31.2578125 C41.4313623 30.1042627 41.12053711 28.95071289 40.80029297 27.76220703 C40.11063925 25.07074306 40.11063925 25.07074306 39 23 C38.55346069 24.71884399 38.55346069 24.71884399 38.09790039 26.47241211 C36.99622518 30.70932334 35.89004336 34.94504688 34.7824707 39.18041992 C34.3030421 41.01635997 33.82484892 42.85262309 33.34790039 44.68920898 C32.66353975 47.3236066 31.97479605 49.95682391 31.28515625 52.58984375 C31.07157974 53.41588608 30.85800323 54.24192841 30.63795471 55.09300232 C29.11387171 60.88612829 29.11387171 60.88612829 28 62 C23.66684941 62.1438629 19.33487639 62.04208618 15 62 C11.54025354 50.5218371 8.33395099 38.99559503 5.3503418 27.38452148 C4.67772594 24.77457376 3.9941914 22.16762466 3.31054688 19.56054688 C2.87693835 17.88038002 2.44397108 16.20004752 2.01171875 14.51953125 C1.80866623 13.7507515 1.60561371 12.98197174 1.39640808 12.18989563 C0.33976992 8.02528734 -0.22095189 4.33623445 0 0 Z " fill="#175082" transform="translate(934,606)"/>
<path d="M0 0 C4.84468349 3.44717864 7.31986137 6.73751926 9.25 12.3125 C9.53520203 14.76727295 9.53520203 14.76727295 9.5847168 17.36230469 C9.61936287 18.82842194 9.61936287 18.82842194 9.65470886 20.32415771 C9.66939713 21.36702942 9.68408539 22.40990112 9.69921875 23.484375 C9.72095657 24.56253479 9.7426944 25.64069458 9.76509094 26.75152588 C9.80892306 29.02420948 9.84814188 31.29698613 9.88305664 33.56982422 C9.93751991 37.0637774 10.00765236 40.55715888 10.08007812 44.05078125 C10.12071343 46.25779572 10.16045814 48.46482681 10.19921875 50.671875 C10.21997971 51.72284363 10.24074066 52.77381226 10.26213074 53.85662842 C10.27577164 54.82143127 10.28941254 55.78623413 10.3034668 56.78027344 C10.31741989 57.63345154 10.33137299 58.48662964 10.3457489 59.36566162 C10.25 61.3125 10.25 61.3125 9.25 62.3125 C6.8515625 62.55078125 6.8515625 62.55078125 3.875 62.625 C2.40933594 62.68107422 2.40933594 62.68107422 0.9140625 62.73828125 C-1.75 62.3125 -1.75 62.3125 -3.6015625 60.29296875 C-3.98054688 59.63941406 -4.35953125 58.98585938 -4.75 58.3125 C-5.678125 58.951875 -6.60625 59.59125 -7.5625 60.25 C-13.85526478 64.32178897 -20.45170774 64.03182227 -27.75 63.3125 C-32.99597711 61.38230079 -36.68524132 57.97093319 -39.75 53.3125 C-41.74653601 47.32289198 -41.82712301 40.59102945 -39.125 34.875 C-32.78062519 28.0297535 -27.38124149 25.55718622 -18.25 24.1875 C-17.1671875 24.01992188 -16.084375 23.85234375 -14.96875 23.6796875 C-11.8625457 23.32533895 -8.8730036 23.24665354 -5.75 23.3125 C-6.03094582 21.4983073 -6.32506433 19.68614999 -6.625 17.875 C-6.78742188 16.86566406 -6.94984375 15.85632813 -7.1171875 14.81640625 C-7.32601563 13.99011719 -7.53484375 13.16382813 -7.75 12.3125 C-10.22378124 11.07560938 -11.92915317 11.17939913 -14.6875 11.1875 C-15.56277344 11.18492187 -16.43804688 11.18234375 -17.33984375 11.1796875 C-19.89459056 11.21427997 -19.89459056 11.21427997 -22.75 12.3125 C-23.96869929 14.81697516 -23.96869929 14.81697516 -24.75 17.3125 C-30.04441695 17.81673019 -32.56413519 16.50173033 -36.75 13.3125 C-36.25897142 7.58383323 -32.94490803 5.22419409 -28.8125 1.625 C-21.29198017 -3.16078535 -8.1254792 -3.78677993 0 0 Z " fill="#175082" transform="translate(1152.75,382.6875)"/>
<path d="M0 0 C4.70174246 2.91258382 7.5883447 7.26503411 9.3125 12.4375 C9.4320487 14.04232792 9.49900052 15.65135332 9.53369141 17.26025391 C9.55686432 18.23781647 9.58003723 19.21537903 9.60391235 20.2225647 C9.6237619 21.27575897 9.64361145 22.32895325 9.6640625 23.4140625 C9.68721527 24.49505219 9.71036804 25.57604187 9.73422241 26.68978882 C9.78184509 28.97446038 9.82708118 31.25918275 9.87011719 33.54394531 C9.93736653 37.05553067 10.01506438 40.56677941 10.09375 44.078125 C10.13865038 46.29425817 10.18294213 48.51040377 10.2265625 50.7265625 C10.25046051 51.78380524 10.27435852 52.84104797 10.29898071 53.93032837 C10.3158493 54.90158661 10.3327179 55.87284485 10.35009766 56.87353516 C10.36706696 57.73274567 10.38403625 58.59195618 10.40151978 59.47720337 C10.3125 61.4375 10.3125 61.4375 9.3125 62.4375 C7.29285801 62.50994053 5.27082876 62.52127188 3.25 62.5 C2.14527344 62.49097656 1.04054688 62.48195313 -0.09765625 62.47265625 C-0.95230469 62.46105469 -1.80695312 62.44945312 -2.6875 62.4375 C-3.3475 61.1175 -4.0075 59.7975 -4.6875 58.4375 C-5.595 59.076875 -6.5025 59.71625 -7.4375 60.375 C-13.67298836 64.33213684 -20.45488307 64.19791851 -27.6875 63.4375 C-33.41646994 61.35096778 -36.78382968 57.78025339 -39.6875 52.4375 C-41.54554418 46.86336747 -41.49381384 41.49474432 -39 36.125 C-35.81475329 30.55081826 -31.65859298 27.97256817 -25.64453125 26.09765625 C-19.08928157 24.63419892 -12.36390523 24.08904356 -5.6875 23.4375 C-5.77496284 21.99888706 -5.88315348 20.56152492 -6 19.125 C-6.05800781 18.32449219 -6.11601563 17.52398438 -6.17578125 16.69921875 C-6.79249803 13.97342474 -7.41041696 13.04307075 -9.6875 11.4375 C-13.09328592 10.69284511 -16.27582934 10.72993486 -19.6875 11.4375 C-21.29803214 12.72995097 -21.29803214 12.72995097 -22.4375 14.4375 C-24.6875 17.4375 -24.6875 17.4375 -27.625 18.0625 C-31.36038801 17.30017592 -33.67658039 15.73153399 -36.6875 13.4375 C-36.1791752 8.98965797 -34.85180777 6.60180777 -31.6875 3.4375 C-22.72309237 -1.96644734 -9.94469942 -4.47511474 0 0 Z " fill="#175082" transform="translate(869.6875,496.5625)"/>
<path d="M0 0 C7.05786206 6.06055547 10.42894241 12.4936881 11.23828125 21.71484375 C11.36917921 26.40650206 11.1640712 28.6718576 9 33 C-2.88 33 -14.76 33 -27 33 C-25.09564016 43.56587843 -25.09564016 43.56587843 -20 48 C-16.03691397 49.98154301 -11.30700763 49.5659277 -7 49 C-4.87656437 47.91590827 -4.87656437 47.91590827 -3.125 46.4375 C0 44 0 44 2.6875 43.875 C5.83164621 45.40458464 7.22548531 46.99697514 9 50 C9.25 52.5 9.25 52.5 8 55 C-0.31214755 61.81871206 -9.69232102 62.92387733 -20.07910156 62.23828125 C-26.38917895 61.45553652 -31.23387718 58.16500674 -35.4375 53.5625 C-43.29226175 43.33355885 -42.95297064 31.36524844 -42 19 C-40.45559316 11.56919679 -36.41744456 5.14299743 -30.19921875 0.71875 C-21.76322361 -4.33923424 -8.49974339 -5.65449031 0 0 Z " fill="#174F82" transform="translate(1337,384)"/>
<path d="M0 0 C4.93402801 3.13983601 7.88061114 7.34220822 9.60107422 12.96411133 C10.00999207 15.05099379 10.12931302 16.94928208 10.1328125 19.07421875 C10.13474609 20.19860352 10.13474609 20.19860352 10.13671875 21.34570312 C10.13285156 22.11849609 10.12898438 22.89128906 10.125 23.6875 C10.13080078 24.8640918 10.13080078 24.8640918 10.13671875 26.06445312 C10.12667749 31.87332251 10.12667749 31.87332251 9 33 C6.3337397 33.08855161 3.69352886 33.11524673 1.02734375 33.09765625 C0.22970108 33.0962413 -0.56794159 33.09482635 -1.38975525 33.09336853 C-3.94737435 33.08775316 -6.50490718 33.07519812 -9.0625 33.0625 C-10.79231645 33.05748698 -12.52213426 33.05292373 -14.25195312 33.04882812 C-18.50133553 33.03777875 -22.75065312 33.02050386 -27 33 C-26.5466193 34.76854233 -26.08549026 36.53509954 -25.62109375 38.30078125 C-25.23715454 39.77671753 -25.23715454 39.77671753 -24.84545898 41.2824707 C-23.62124713 45.21741212 -22.5789218 46.88186261 -19 49 C-14.15526154 49.82009086 -9.24498828 50.25037322 -4.83984375 47.796875 C-4.25332031 47.32765625 -3.66679688 46.8584375 -3.0625 46.375 C-1.5465625 45.199375 -1.5465625 45.199375 0 44 C3.27062162 44.52032617 4.52123878 45.53719748 6.875 47.8125 C8 50 8 50 8 52.5 C6.41814506 56.45463735 3.93318695 58.02085336 0.1953125 59.9140625 C-7.60423274 63.06331284 -16.9238832 63.49885338 -24.9765625 61.12109375 C-32.77564171 57.55142457 -37.73838318 51.89654598 -41 44 C-43.64077448 34.12499119 -43.81165771 20.09875992 -39.19921875 10.90625 C-30.56153557 -2.82400861 -14.63027741 -7.3151387 0 0 Z " fill="#164F82" transform="translate(1053,384)"/>
<path d="M0 0 C1.1859375 0.00257813 2.371875 0.00515625 3.59375 0.0078125 C4.7796875 0.00523437 5.965625 0.00265625 7.1875 0 C10.09375 0.1328125 10.09375 0.1328125 11.09375 1.1328125 C11.18643999 2.48376232 11.21122326 3.83948341 11.20727539 5.19360352 C11.20719986 6.05442032 11.20712433 6.91523712 11.20704651 7.80213928 C11.20188522 8.73755051 11.19672394 9.67296173 11.19140625 10.63671875 C11.1899913 11.58973373 11.18857635 12.54274872 11.18711853 13.52464294 C11.18150152 16.58156415 11.16894616 19.63841327 11.15625 22.6953125 C11.15123719 24.76236874 11.14667391 26.82942612 11.14257812 28.89648438 C11.13152656 33.97528838 11.11425055 39.0540382 11.09375 44.1328125 C12.84072125 42.26730624 14.5819232 40.39691465 16.3203125 38.5234375 C16.80830322 38.00346191 17.29629395 37.48348633 17.79907227 36.94775391 C21.04129542 33.44279421 23.79190271 29.83625362 26.46875 25.8828125 C29.13410833 22.49892406 30.27371349 21.29533389 34.54296875 20.44921875 C37.80262185 20.4456948 40.87425785 20.64018542 44.09375 21.1328125 C44.7565918 22.90063477 44.7565918 22.90063477 45.09375 25.1328125 C44.07739258 26.97631836 44.07739258 26.97631836 42.48828125 28.84765625 C41.91658203 29.53408203 41.34488281 30.22050781 40.75585938 30.92773438 C40.14548828 31.63478516 39.53511719 32.34183594 38.90625 33.0703125 C38.31521484 33.77349609 37.72417969 34.47667969 37.11523438 35.20117188 C35.96766592 36.56622822 34.81563792 37.92755082 33.65869141 39.28466797 C31.75681046 41.53072705 29.91618308 43.82198544 28.09375 46.1328125 C29.39245713 49.55347372 30.88044031 52.69234027 32.703125 55.86328125 C33.21101562 56.74951172 33.71890625 57.63574219 34.2421875 58.54882812 C34.77070312 59.46341797 35.29921875 60.37800781 35.84375 61.3203125 C36.35679687 62.21556641 36.86984375 63.11082031 37.3984375 64.03320312 C39.50939787 67.7061681 41.61911531 71.37000675 43.85742188 74.96728516 C44.41494141 75.86366699 44.97246094 76.76004883 45.546875 77.68359375 C46.05895508 78.49094971 46.57103516 79.29830566 47.09863281 80.13012695 C47.42702148 80.79101318 47.75541016 81.45189941 48.09375 82.1328125 C47.76375 82.7928125 47.43375 83.4528125 47.09375 84.1328125 C35.01958928 85.32368863 35.01958928 85.32368863 31.1796875 82.94921875 C29.5277242 80.78041314 28.35029926 78.55801767 27.09375 76.1328125 C26.24482618 74.68936661 25.38722373 73.25100761 24.5234375 71.81640625 C21.99957944 67.61482634 19.53691053 63.38178733 17.09375 59.1328125 C14.43153489 60.45645656 14.43153489 60.45645656 12.09375 63.1328125 C11.33581643 66.51709156 11.34861693 69.86236019 11.34375 73.3203125 C11.31074159 75.14720101 11.27446454 76.97403441 11.234375 78.80078125 C11.22954102 79.60797607 11.22470703 80.4151709 11.21972656 81.24682617 C11.09375 83.1328125 11.09375 83.1328125 10.09375 84.1328125 C7.92894203 84.2317419 5.76081215 84.2625235 3.59375 84.2578125 C2.4078125 84.26039063 1.221875 84.26296875 0 84.265625 C-2.90625 84.1328125 -2.90625 84.1328125 -3.90625 83.1328125 C-4.00662731 80.58229776 -4.04242487 78.05884071 -4.03564453 75.5078125 C-4.03739685 74.70947998 -4.03914917 73.91114746 -4.04095459 73.08862305 C-4.04537367 70.4366644 -4.04243492 67.78477188 -4.0390625 65.1328125 C-4.03973552 63.29817695 -4.04070553 61.46354149 -4.04196167 59.62890625 C-4.04343872 55.77863722 -4.04128386 51.92839134 -4.03662109 48.078125 C-4.0309238 43.13124753 -4.03420277 38.18442431 -4.04019356 33.23754883 C-4.04379898 29.44758695 -4.04266067 25.65763804 -4.04006577 21.86767578 C-4.03939644 20.04313145 -4.0402251 18.21858595 -4.04254532 16.39404297 C-4.04507154 13.84860089 -4.0412317 11.30324791 -4.03564453 8.7578125 C-4.03868088 7.61542114 -4.03868088 7.61542114 -4.04177856 6.44995117 C-4.01616551 0.18353445 -4.01616551 0.18353445 0 0 Z " fill="#195284" transform="translate(956.90625,474.8671875)"/>
<path d="M0 0 C6.02175586 3.75693618 9.62205203 9.75478546 11.375 16.5 C11.6168732 19.27808652 11.61067501 22.02595629 11.5625 24.8125 C11.56185547 25.54017578 11.56121094 26.26785156 11.56054688 27.01757812 C11.51574248 32.35925752 11.51574248 32.35925752 10.375 33.5 C7.7087397 33.58855161 5.06852886 33.61524673 2.40234375 33.59765625 C1.60470108 33.5962413 0.80705841 33.59482635 -0.01475525 33.59336853 C-2.57237435 33.58775316 -5.12990718 33.57519812 -7.6875 33.5625 C-9.41731645 33.55748698 -11.14713426 33.55292373 -12.87695312 33.54882812 C-17.12633553 33.53777875 -21.37565312 33.52050386 -25.625 33.5 C-25.05939084 35.6090001 -24.4718289 37.71212137 -23.875 39.8125 C-23.55015625 40.98425781 -23.2253125 42.15601563 -22.890625 43.36328125 C-21.55281533 46.67890213 -20.71754087 47.8108656 -17.625 49.5 C-13.05779459 50.26332124 -7.77533705 50.78501027 -3.68359375 48.33984375 C-2.32479783 47.06619431 -0.97441217 45.78358718 0.375 44.5 C3 44.375 3 44.375 5.375 45.5 C7.75 47.75 7.75 47.75 9.375 50.5 C9.45819737 53.91109233 8.72821001 55.11260837 6.4375 57.625 C-1.58159018 62.53464705 -10.35997307 63.55521583 -19.625 62.5 C-26.87430667 60.41809308 -32.4460894 56.78367357 -36.3125 50.25 C-41.42269584 40.33493449 -42.35594152 29.01979889 -39.5 18.1875 C-36.46612271 9.60797725 -31.90967468 3.45685955 -23.625 -0.5 C-16.92241641 -2.73419453 -6.49627767 -2.87457121 0 0 Z " fill="#175082" transform="translate(877.625,606.5)"/>
<path d="M0 0 C4.62 0 9.24 0 14 0 C14.33 15.51 14.66 31.02 15 47 C17.97 43.37 20.94 39.74 24 36 C25.64837459 34.12955272 27.30945913 32.26992555 29 30.4375 C31.83339387 27.4464303 31.83339387 27.4464303 34 24 C38.95 24 43.9 24 49 24 C47.91305769 28.34776925 46.03034773 30.89560824 43.3125 34.3125 C42.86350342 34.89064453 42.41450684 35.46878906 41.9519043 36.06445312 C39.5229865 39.16969551 37.00796729 42.12017292 34.3125 45 C31.72328192 47.6756505 31.72328192 47.6756505 32.15087891 50.31030273 C33.16139733 53.51124624 34.58391193 56.13312907 36.2734375 59.03515625 C36.9334375 60.17404297 37.5934375 61.31292969 38.2734375 62.48632812 C38.61858398 63.07357666 38.96373047 63.6608252 39.31933594 64.26586914 C40.37144273 66.0564459 41.41312791 67.8527586 42.453125 69.65039062 C45.81896474 75.61876396 45.81896474 75.61876396 49.78369141 81.18139648 C50.18507324 81.78153564 50.58645508 82.3816748 51 83 C50.505 84.485 50.505 84.485 50 86 C45.20384007 86.59868848 40.77925572 86.8202023 36 86 C32.55342326 83.29153969 30.96116428 79.86478828 29 76 C28.27811278 74.7579932 27.5471838 73.52120973 26.80859375 72.2890625 C21 62.52450805 21 62.52450805 21 60 C20.34 60 19.68 60 19 60 C18.566875 60.928125 18.566875 60.928125 18.125 61.875 C17 64 17 64 15 66 C14.64733361 68.01479093 14.64733361 68.01479093 14.62109375 70.31640625 C14.58693359 71.16267578 14.55277344 72.00894531 14.51757812 72.88085938 C14.49115234 73.76580078 14.46472656 74.65074219 14.4375 75.5625 C14.37780601 77.31394692 14.31421588 79.06526689 14.24609375 80.81640625 C14.22216553 81.59443604 14.1982373 82.37246582 14.17358398 83.17407227 C14 85 14 85 13 86 C11.00200428 86.09873816 9.00042842 86.12971799 7 86.125 C5.906875 86.12757813 4.81375 86.13015625 3.6875 86.1328125 C1 86 1 86 0 85 C-0.09511266 82.35261911 -0.12555635 79.73140999 -0.11352539 77.08374023 C-0.11367142 76.25454071 -0.11381744 75.42534119 -0.1139679 74.5710144 C-0.11326851 71.81684802 -0.10547493 69.06274839 -0.09765625 66.30859375 C-0.09579216 64.40430234 -0.09436822 62.50001045 -0.09336853 60.59571838 C-0.08954263 55.57332037 -0.07971173 50.55095108 -0.06866455 45.52856445 C-0.05845198 40.4077188 -0.05387124 35.28686852 -0.04882812 30.16601562 C-0.03808953 20.11066443 -0.02101224 10.0553346 0 0 Z " fill="#164E81" transform="translate(1118,582)"/>
<path d="M0 0 C5.1918163 2.97436704 7.78223271 7.97169814 9.625 13.5 C9.71689272 15.07489678 9.75290574 16.65338233 9.75439453 18.23095703 C9.75754669 19.18849884 9.76069885 20.14604065 9.76394653 21.13259888 C9.7619223 22.16391937 9.75989807 23.19523987 9.7578125 24.2578125 C9.75876923 25.31660614 9.75972595 26.37539978 9.76071167 27.46627808 C9.76139226 29.70391906 9.75954639 31.94156203 9.75537109 34.17919922 C9.75001059 37.61820873 9.75532563 41.05708826 9.76171875 44.49609375 C9.76105816 46.66666696 9.75977738 48.83724008 9.7578125 51.0078125 C9.75983673 52.04318146 9.76186096 53.07855042 9.76394653 54.14529419 C9.75921829 55.57215042 9.75921829 55.57215042 9.75439453 57.02783203 C9.75359894 57.86927765 9.75280334 58.71072327 9.75198364 59.57766724 C9.625 61.5 9.625 61.5 8.625 62.5 C6.62700428 62.59873816 4.62542842 62.62971799 2.625 62.625 C1.531875 62.62757813 0.43875 62.63015625 -0.6875 62.6328125 C-3.375 62.5 -3.375 62.5 -4.375 61.5 C-4.49839241 58.46924549 -4.56119464 55.45780487 -4.5859375 52.42578125 C-4.61401953 50.54230922 -4.64268407 48.6588458 -4.671875 46.77539062 C-4.7130594 43.7976111 -4.74993352 40.81999002 -4.77636719 37.84204102 C-4.80405449 34.97377959 -4.84994278 32.10625642 -4.8984375 29.23828125 C-4.90169037 28.35368729 -4.90494324 27.46909332 -4.90829468 26.55769348 C-5.00863622 21.48690759 -5.52824209 17.87905781 -8.375 13.5 C-11.58581678 11.89459161 -14.89210355 12.01536691 -18.375 12.5 C-22.63166699 14.74162425 -22.63166699 14.74162425 -25.375 18.5 C-25.48726687 19.88303778 -25.541475 21.27105065 -25.56445312 22.65844727 C-25.58117065 23.51596085 -25.59788818 24.37347443 -25.6151123 25.25697327 C-25.62868774 26.18408615 -25.64226318 27.11119904 -25.65625 28.06640625 C-25.67465942 29.01563461 -25.69306885 29.96486298 -25.71203613 30.94285583 C-25.79090773 35.01606718 -25.85860239 39.08944728 -25.92724609 43.1628418 C-25.97883777 46.13078337 -26.03613356 49.09857654 -26.09375 52.06640625 C-26.10732544 52.99554337 -26.12090088 53.92468048 -26.1348877 54.88197327 C-26.15160522 55.73633469 -26.16832275 56.59069611 -26.18554688 57.47094727 C-26.19807495 58.22658463 -26.21060303 58.98222198 -26.22351074 59.76075745 C-26.375 61.5 -26.375 61.5 -27.375 62.5 C-29.37299572 62.59873816 -31.37457158 62.62971799 -33.375 62.625 C-34.468125 62.62757813 -35.56125 62.63015625 -36.6875 62.6328125 C-39.375 62.5 -39.375 62.5 -40.375 61.5 C-40.47415795 59.60301151 -40.50299314 57.70231213 -40.50439453 55.80273438 C-40.50754669 54.58477173 -40.51069885 53.36680908 -40.51394653 52.11193848 C-40.51215675 50.77254195 -40.5101058 49.43314576 -40.5078125 48.09375 C-40.5084856 46.7299396 -40.50945567 45.36612932 -40.51071167 44.00231934 C-40.51218838 41.14069479 -40.51003497 38.2791014 -40.50537109 35.41748047 C-40.49967381 31.74181386 -40.50295296 28.06622026 -40.50894356 24.39055634 C-40.51254991 21.57337896 -40.51141025 18.75621902 -40.50881577 15.93904114 C-40.5081467 14.58339937 -40.50897421 13.22775604 -40.51129532 11.87211609 C-40.51382301 9.98049956 -40.50929014 8.08887751 -40.50439453 6.19726562 C-40.50359894 5.11884399 -40.50280334 4.04042236 -40.50198364 2.92932129 C-40.375 0.5 -40.375 0.5 -39.375 -0.5 C-35.66807853 -0.9226132 -32.07328488 -1.01963943 -28.375 -0.5 C-26.1875 2 -26.1875 2 -25.375 4.5 C-24.653125 3.88125 -23.93125 3.2625 -23.1875 2.625 C-16.43544393 -2.47655347 -7.83351719 -3.35934513 0 0 Z " fill="#164E81" transform="translate(931.375,496.5)"/>
<path d="M0 0 C4.95 0 9.9 0 15 0 C17.04294693 5.26093653 18.78495438 10.47627269 20.2265625 15.9296875 C20.41971039 16.64609406 20.61285828 17.36250061 20.81185913 18.10061646 C21.41994398 20.35776899 22.02286121 22.61625466 22.625 24.875 C23.23492047 27.1549866 23.84598705 29.43464821 24.45956421 31.71365356 C24.83914051 33.12423658 25.21652307 34.53541217 25.59146118 35.94723511 C26.55510194 39.56098873 26.55510194 39.56098873 28 43 C28.25692627 42.01193359 28.51385254 41.02386719 28.77856445 40.00585938 C29.74155282 36.30713767 30.7101735 32.60990971 31.68041992 28.91308594 C32.09795113 27.31908112 32.51399539 25.72468598 32.9284668 24.12988281 C33.52773796 21.82510466 34.13251122 19.52182745 34.73828125 17.21875 C34.91966141 16.51633179 35.10104156 15.81391357 35.28791809 15.09020996 C38.66234465 2.33765535 38.66234465 2.33765535 41 0 C43.01964199 -0.07244053 45.04167124 -0.08377188 47.0625 -0.0625 C48.71958984 -0.04896484 48.71958984 -0.04896484 50.41015625 -0.03515625 C51.26480469 -0.02355469 52.11945313 -0.01195312 53 0 C54.12746378 4.08325972 53.81322092 6.57013281 52.49291992 10.56884766 C51.9619294 12.2054686 51.9619294 12.2054686 51.42021179 13.87515259 C51.02759659 15.04299286 50.63498138 16.21083313 50.23046875 17.4140625 C49.83426834 18.62065521 49.43806793 19.82724792 49.02986145 21.07040405 C48.19038843 23.61928101 47.34664858 26.1661997 46.49487305 28.7109375 C45.40415408 31.97005994 44.32790941 35.2337249 43.25680065 38.49933815 C42.23272141 41.61857904 41.20036176 44.7350651 40.16796875 47.8515625 C39.78142624 49.02345123 39.39488373 50.19533997 38.99662781 51.40274048 C38.63317764 52.48751678 38.26972748 53.57229309 37.89526367 54.68994141 C37.57692062 55.64526764 37.25857758 56.60059387 36.93058777 57.58486938 C36 60 36 60 34 63 C30.7421875 63.29296875 30.7421875 63.29296875 26.875 63.1875 C24.95300781 63.14689453 24.95300781 63.14689453 22.9921875 63.10546875 C22.00476562 63.07066406 21.01734375 63.03585937 20 63 C15.7578471 52.63865582 12.07135502 42.09764892 8.38012695 31.53027344 C7.58071144 29.24772531 6.77662192 26.96680913 5.96801758 24.6875 C4.79519243 21.38112367 3.63628867 18.07016577 2.48046875 14.7578125 C2.11600143 13.738013 1.75153412 12.7182135 1.37602234 11.66751099 C1.04850479 10.71907318 0.72098724 9.77063538 0.38354492 8.79345703 C0.09138596 7.96202179 -0.20077301 7.13058655 -0.50178528 6.2739563 C-1 4 -1 4 0 0 Z " fill="#174F82" transform="translate(1238,382)"/>
<path d="M0 0 C0 5.94 0 11.88 0 18 C3.1865625 17.9690625 3.1865625 17.9690625 6.4375 17.9375 C8.62499611 17.91626217 10.81360547 17.92741054 13 18 C14 19 14 19 14.09765625 21.50390625 C14.06510417 24.3359375 14.03255208 27.16796875 14 30 C9.38 30 4.76 30 0 30 C0.09341361 35.09066226 0.19947911 40.18084204 0.31738281 45.27099609 C0.35571341 47.00334407 0.39055906 48.73577274 0.421875 50.46826172 C0.46743765 52.95569749 0.52544503 55.44257566 0.5859375 57.9296875 C0.59748871 58.70682098 0.60903992 59.48395447 0.62094116 60.28463745 C0.58793768 64.60650975 0.58793768 64.60650975 3 68 C5.44012949 68.24287489 5.44012949 68.24287489 8.125 68.125 C9.03507812 68.10695313 9.94515625 68.08890625 10.8828125 68.0703125 C11.58148437 68.04710937 12.28015625 68.02390625 13 68 C14.94158017 71.51624755 15.18311068 73.9715651 15 78 C10.34310458 80.70933576 6.87130739 81.43204135 1.5 81.4375 C-0.40265625 81.46650391 -0.40265625 81.46650391 -2.34375 81.49609375 C-6.66467659 80.90981418 -8.71039051 79.8405967 -12 77 C-15.31728172 71.85171607 -15.40142693 67.57582703 -15.29296875 61.6640625 C-15.28872391 60.78471039 -15.28447906 59.90535828 -15.28010559 58.99935913 C-15.26339461 56.20758658 -15.22575692 53.41655212 -15.1875 50.625 C-15.17244334 48.72527089 -15.15875666 46.82553039 -15.14648438 44.92578125 C-15.11351598 40.28357242 -15.06178653 35.64191109 -15 31 C-15.63808594 31.01160156 -16.27617188 31.02320313 -16.93359375 31.03515625 C-17.75988281 31.04417969 -18.58617187 31.05320312 -19.4375 31.0625 C-20.26121094 31.07410156 -21.08492187 31.08570313 -21.93359375 31.09765625 C-24 31 -24 31 -25 30 C-25.07244053 27.98035801 -25.08377188 25.95832876 -25.0625 23.9375 C-25.05347656 22.83277344 -25.04445313 21.72804688 -25.03515625 20.58984375 C-25.02355469 19.73519531 -25.01195312 18.88054687 -25 18 C-21.7 18 -18.4 18 -15 18 C-15 12.72 -15 7.44 -15 2 C-5.14285714 -1.28571429 -5.14285714 -1.28571429 0 0 Z " fill="#174F82" transform="translate(1193,364)"/>
<path d="M0 0 C0 5.94 0 11.88 0 18 C3.1865625 17.9690625 3.1865625 17.9690625 6.4375 17.9375 C8.62499611 17.91626217 10.81360547 17.92741054 13 18 C14 19 14 19 14.1328125 21.25 C14.13023437 22.1575 14.12765625 23.065 14.125 24 C14.12886719 25.36125 14.12886719 25.36125 14.1328125 26.75 C14 29 14 29 13 30 C10.81360547 30.07258946 8.62499611 30.08373783 6.4375 30.0625 C4.64119141 30.04896484 4.64119141 30.04896484 2.80859375 30.03515625 C1.88175781 30.02355469 0.95492187 30.01195312 0 30 C0.09355263 34.7875368 0.19964984 39.57456894 0.31738281 44.36157227 C0.35566618 45.99007549 0.39052024 47.61866309 0.421875 49.24731445 C0.46754002 51.58836014 0.52553077 53.9288253 0.5859375 56.26953125 C0.59748871 56.99775589 0.60903992 57.72598053 0.62094116 58.47627258 C0.72878512 62.16961374 0.89884276 63.84826414 3 67 C5.43693311 67.36416047 5.43693311 67.36416047 8.125 67.1875 C9.03507813 67.16042969 9.94515625 67.13335938 10.8828125 67.10546875 C11.58148437 67.07066406 12.28015625 67.03585937 13 67 C14.90567254 70.54347946 15.60621746 72.92968274 15 77 C10.99879674 80.21308747 7.59516032 80.43243186 2.5625 80.4375 C1.28503906 80.45683594 0.00757813 80.47617187 -1.30859375 80.49609375 C-5.65182934 79.91239965 -7.69649161 78.85670294 -11 76 C-14.31699968 70.85139272 -14.40143011 66.57600051 -14.29296875 60.6640625 C-14.28872391 59.78471039 -14.28447906 58.90535828 -14.28010559 57.99935913 C-14.26339461 55.20758658 -14.22575692 52.41655212 -14.1875 49.625 C-14.17244334 47.72527089 -14.15875666 45.82553039 -14.14648438 43.92578125 C-14.11351598 39.28357242 -14.06178653 34.64191109 -14 30 C-14.63808594 30.01160156 -15.27617188 30.02320313 -15.93359375 30.03515625 C-17.17302734 30.04869141 -17.17302734 30.04869141 -18.4375 30.0625 C-19.67306641 30.07990234 -19.67306641 30.07990234 -20.93359375 30.09765625 C-23 30 -23 30 -24 29 C-24.07226502 27.14712498 -24.0838122 25.29166122 -24.0625 23.4375 C-24.05347656 22.42558594 -24.04445313 21.41367187 -24.03515625 20.37109375 C-24.02355469 19.58863281 -24.01195312 18.80617188 -24 18 C-20.7 18 -17.4 18 -14 18 C-14 12.72 -14 7.44 -14 2 C-5.53846154 -1.38461538 -5.53846154 -1.38461538 0 0 Z " fill="#154D81" transform="translate(916,588)"/>
<path d="M0 0 C0.99128906 -0.00257813 1.98257812 -0.00515625 3.00390625 -0.0078125 C5.4375 0.125 5.4375 0.125 6.4375 1.125 C6.53658783 2.91440972 6.56720379 4.70785508 6.5625 6.5 C6.56636719 7.96566406 6.56636719 7.96566406 6.5703125 9.4609375 C6.4375 12.125 6.4375 12.125 5.4375 15.125 C4.22513672 15.16367187 4.22513672 15.16367187 2.98828125 15.203125 C-3.6435715 15.48335665 -3.6435715 15.48335665 -9.6875 17.9375 C-13.84844936 22.79194092 -13.87863657 26.82516775 -13.94140625 33.01171875 C-13.96689796 34.29814018 -13.96689796 34.29814018 -13.99290466 35.61054993 C-14.045959 38.34445892 -14.08631491 41.07835285 -14.125 43.8125 C-14.16888776 46.55728367 -14.21551674 49.30194831 -14.26780701 52.04658508 C-14.29983756 53.75367791 -14.32670456 55.46087658 -14.34803772 57.1681366 C-14.45072982 63.01322982 -14.45072982 63.01322982 -15.5625 64.125 C-17.72730797 64.2239294 -19.89543785 64.254711 -22.0625 64.25 C-23.2484375 64.25257813 -24.434375 64.25515625 -25.65625 64.2578125 C-28.5625 64.125 -28.5625 64.125 -29.5625 63.125 C-29.66165795 61.22801151 -29.69049314 59.32731213 -29.69189453 57.42773438 C-29.69504669 56.20977173 -29.69819885 54.99180908 -29.70144653 53.73693848 C-29.69965675 52.39754195 -29.6976058 51.05814576 -29.6953125 49.71875 C-29.6959856 48.3549396 -29.69695567 46.99112932 -29.69821167 45.62731934 C-29.69968838 42.76569479 -29.69753497 39.9041014 -29.69287109 37.04248047 C-29.68717381 33.36681386 -29.69045296 29.69122026 -29.69644356 26.01555634 C-29.70004991 23.19837896 -29.69891025 20.38121902 -29.69631577 17.56404114 C-29.6956467 16.20839937 -29.69647421 14.85275604 -29.69879532 13.49711609 C-29.70132301 11.60549956 -29.69679014 9.71387751 -29.69189453 7.82226562 C-29.69109894 6.74384399 -29.69030334 5.66542236 -29.68948364 4.55432129 C-29.5625 2.125 -29.5625 2.125 -28.5625 1.125 C-26.54285801 1.05255947 -24.52082876 1.04122812 -22.5 1.0625 C-20.84291016 1.07603516 -20.84291016 1.07603516 -19.15234375 1.08984375 C-18.29769531 1.10144531 -17.44304687 1.11304688 -16.5625 1.125 C-15.9025 3.105 -15.2425 5.085 -14.5625 7.125 C-14.08039063 6.70347656 -13.59828125 6.28195312 -13.1015625 5.84765625 C-12.46992187 5.29980469 -11.83828125 4.75195312 -11.1875 4.1875 C-10.24777344 3.36958984 -10.24777344 3.36958984 -9.2890625 2.53515625 C-6.14491226 -0.03280356 -3.99519829 -0.01041773 0 0 Z " fill="#154E81" transform="translate(1102.5625,380.875)"/>
<path d="M0 0 C1.31677734 0.00966797 1.31677734 0.00966797 2.66015625 0.01953125 C4.9375 0.1875 4.9375 0.1875 6.9375 1.1875 C6.99187607 2.77044782 7.03046271 4.35394256 7.0625 5.9375 C7.08570313 6.81921875 7.10890625 7.7009375 7.1328125 8.609375 C6.92889502 11.3010858 6.30301721 12.88654974 4.9375 15.1875 C4.27363281 15.14109375 3.60976562 15.0946875 2.92578125 15.046875 C-2.82885783 14.78356782 -2.82885783 14.78356782 -8.0625 16.9375 C-12.36613845 21.77909326 -12.37795124 25.82012204 -12.44140625 32.07421875 C-12.46689796 33.36064018 -12.46689796 33.36064018 -12.49290466 34.67304993 C-12.545959 37.40695892 -12.58631491 40.14085285 -12.625 42.875 C-12.66888776 45.61978367 -12.71551674 48.36444831 -12.76780701 51.10908508 C-12.79983756 52.81617791 -12.82670456 54.52337658 -12.84803772 56.2306366 C-12.95072982 62.07572982 -12.95072982 62.07572982 -14.0625 63.1875 C-16.03869447 63.31264928 -18.01988173 63.3632276 -20 63.375 C-21.08152344 63.38917969 -22.16304687 63.40335938 -23.27734375 63.41796875 C-26.0625 63.1875 -26.0625 63.1875 -28.0625 61.1875 C-28.30973816 58.71385193 -28.30973816 58.71385193 -28.30541992 55.56030273 C-28.30849655 54.38245712 -28.31157318 53.20461151 -28.31474304 51.99107361 C-28.30755753 50.71398026 -28.30037201 49.4368869 -28.29296875 48.12109375 C-28.29251053 46.81672867 -28.29205231 45.51236359 -28.2915802 44.16847229 C-28.29001533 41.40693851 -28.28172467 38.64553437 -28.26831055 35.8840332 C-28.25130399 32.33730046 -28.24749667 28.79071004 -28.24825573 25.24394131 C-28.24791911 21.86963957 -28.23908538 18.49538493 -28.23046875 15.12109375 C-28.22935593 13.84197617 -28.2282431 12.56285858 -28.22709656 11.24497986 C-28.22071671 10.07028641 -28.21433685 8.89559296 -28.20776367 7.68530273 C-28.20395187 6.64542709 -28.20014008 5.60555145 -28.19621277 4.53416443 C-28.0625 2.1875 -28.0625 2.1875 -27.0625 1.1875 C-25.04285801 1.11505947 -23.02082876 1.10372812 -21 1.125 C-19.34291016 1.13853516 -19.34291016 1.13853516 -17.65234375 1.15234375 C-16.79769531 1.16394531 -15.94304687 1.17554688 -15.0625 1.1875 C-14.4025 3.1675 -13.7425 5.1475 -13.0625 7.1875 C-12.299375 6.40375 -11.53625 5.62 -10.75 4.8125 C-7.04827613 1.19686273 -5.10388108 -0.08268438 0 0 Z " fill="#195183" transform="translate(1105.0625,604.8125)"/>
<path d="M0 0 C10.89 0 21.78 0 33 0 C33.61956489 8.67390847 34.13403765 16.8641587 33.78515625 25.46484375 C33.70409393 27.79864501 33.70409393 27.79864501 34 31 C34.99 31.66 35.98 32.32 37 33 C23.47 33 9.94 33 -4 33 C-4 32.67 -4 32.34 -4 32 C-0.37 31.67 3.26 31.34 7 31 C4.69 30.67 2.38 30.34 0 30 C0 20.1 0 10.2 0 0 Z " fill="#1D5787" transform="translate(684,480)"/>
<path d="M0 0 C1.86841878 0.81529141 3.71011626 1.69340556 5.52734375 2.6171875 C6.56697266 3.14183594 7.60660156 3.66648437 8.67773438 4.20703125 C10.29131836 5.03267578 10.29131836 5.03267578 11.9375 5.875 C13.00935547 6.41769531 14.08121094 6.96039063 15.18554688 7.51953125 C17.19011558 8.5348484 19.19343763 9.55263351 21.19506836 10.57373047 C23.20686515 11.59670173 25.2422776 12.57372749 27.29125977 13.52001953 C30 15 30 15 31 17.5625 C31 18.366875 31 19.17125 31 20 C28.249884 22.750116 26.68814059 22.2534349 22.83789062 22.25878906 C21.54314819 22.26509338 20.24840576 22.27139771 18.91442871 22.27789307 C17.49503443 22.27431339 16.07564138 22.27021146 14.65625 22.265625 C13.206583 22.26697169 11.75691643 22.26891226 10.30725098 22.27142334 C7.26745305 22.27437442 4.22777257 22.27007756 1.18798828 22.26074219 C-2.71294249 22.24934756 -6.61359807 22.25590713 -10.51451874 22.26788712 C-13.50846438 22.27510621 -16.50234453 22.27281758 -19.49629211 22.26763153 C-20.93484021 22.26629517 -22.37339421 22.2679423 -23.81193542 22.27259064 C-25.82058604 22.2776564 -27.82925743 22.26856944 -29.83789062 22.25878906 C-30.98213501 22.25719788 -32.12637939 22.25560669 -33.30529785 22.25396729 C-36 22 -36 22 -38 20 C-38.06640625 17.61328125 -38.06640625 17.61328125 -37 15 C-34.62078118 13.4659091 -32.49778099 12.32709183 -29.9375 11.1875 C-28.48127222 10.50627317 -27.0255579 9.82394787 -25.5703125 9.140625 C-24.81782227 8.79322266 -24.06533203 8.44582031 -23.29003906 8.08789062 C-21.01110484 7.00527539 -18.7826333 5.85550208 -16.5546875 4.671875 C-15.84320557 4.29780518 -15.13172363 3.92373535 -14.39868164 3.53833008 C-13.03367935 2.81804976 -11.67324193 2.08903431 -10.31811523 1.3503418 C-6.31600228 -0.72067808 -4.29346972 -1.22255136 0 0 Z " fill="#FBF9F6" transform="translate(500,259)"/>
<path d="M0 0 C0.61694733 0.31242142 1.23389465 0.62484283 1.86953735 0.94673157 C2.5231424 1.26781387 3.17674744 1.58889618 3.85015869 1.91970825 C5.21997569 2.59789181 6.58628013 3.28321263 7.9491272 3.97529602 C10.03785408 5.03091285 12.14149271 6.05111647 14.2484436 7.06977844 C15.58150801 7.73502987 16.91357759 8.40227935 18.24453735 9.07173157 C18.87363007 9.37403183 19.50272278 9.67633209 20.15087891 9.98779297 C23.05093424 11.49280086 24.46890312 12.35853384 25.68447876 15.45185852 C25.65859985 17.84126282 25.65859985 17.84126282 23.65859985 19.84126282 C20.96389771 20.0952301 20.96389771 20.0952301 17.49649048 20.10005188 C16.20174805 20.1063562 14.90700562 20.11266052 13.57302856 20.11915588 C12.15363428 20.11557621 10.73424124 20.11147428 9.31484985 20.10688782 C7.86518285 20.10823451 6.41551628 20.11017508 4.96585083 20.11268616 C1.9260529 20.11563724 -1.11362758 20.11134038 -4.15341187 20.102005 C-8.05434263 20.09061038 -11.95499822 20.09716995 -15.85591888 20.10914993 C-18.84986452 20.11636903 -21.84374467 20.1140804 -24.83769226 20.10889435 C-26.27624036 20.10755798 -27.71479436 20.10920512 -29.15333557 20.11385345 C-31.16198619 20.11891922 -33.17065758 20.10983226 -35.17929077 20.10005188 C-36.32353516 20.09846069 -37.46777954 20.09686951 -38.646698 20.0952301 C-41.34140015 19.84126282 -41.34140015 19.84126282 -43.34140015 17.84126282 C-43.13512387 15.36073701 -42.76825564 14.21582405 -40.88265991 12.56123352 C-40.25158325 12.196026 -39.62050659 11.83081848 -38.9703064 11.45454407 C-38.24730347 11.03382629 -37.52430054 10.61310852 -36.77938843 10.17964172 C-32.31160686 7.72697013 -27.82350738 5.33649897 -23.27890015 3.02876282 C-22.32434937 2.52667297 -21.36979858 2.02458313 -20.38632202 1.50727844 C-19.45239624 1.03354797 -18.51847046 0.5598175 -17.5562439 0.07173157 C-16.72213989 -0.35728455 -15.88803589 -0.78630066 -15.02865601 -1.22831726 C-9.55386809 -3.12387616 -5.18210294 -2.46724129 0 0 Z " fill="#FAF8F5" transform="translate(504.3414001464844,666.1587371826172)"/>
<path d="M0 0 C0.68779541 0.35940674 1.37559082 0.71881348 2.08422852 1.08911133 C3.46863655 1.81478437 4.85045853 2.54541499 6.22949219 3.28125 C8.0134406 4.22082582 9.8220912 5.1131161 11.6328125 6 C12.62023437 6.495 13.60765625 6.99 14.625 7.5 C15.48996094 7.92667969 16.35492188 8.35335938 17.24609375 8.79296875 C19.1875 10.3125 19.1875 10.3125 20.09765625 12.86328125 C20.12730469 13.67152344 20.15695312 14.47976563 20.1875 15.3125 C17.48408085 18.01591915 16.08165955 17.56577453 12.30078125 17.57128906 C11.06610107 17.57759338 9.8314209 17.58389771 8.55932617 17.59039307 C7.206216 17.58681338 5.85310713 17.58271145 4.5 17.578125 C3.11759371 17.57947175 1.73518787 17.58141236 0.3527832 17.58392334 C-2.54578151 17.58687418 -5.44422303 17.58257836 -8.34277344 17.57324219 C-12.06210637 17.56184755 -15.78115068 17.56840725 -19.50047302 17.58038712 C-22.35545027 17.58760688 -25.21035885 17.58531728 -28.06533813 17.58013153 C-29.43690017 17.57879535 -30.80846839 17.58044166 -32.18002319 17.58509064 C-34.0952747 17.59015748 -36.01054801 17.58106831 -37.92578125 17.57128906 C-39.01673096 17.56969788 -40.10768066 17.56810669 -41.23168945 17.56646729 C-43.8125 17.3125 -43.8125 17.3125 -45.8125 15.3125 C-45.9375 12.6875 -45.9375 12.6875 -45.8125 10.3125 C-42.50252936 8.55768586 -39.18907131 6.8095557 -35.875 5.0625 C-34.94880859 4.57136719 -34.02261719 4.08023437 -33.06835938 3.57421875 C-30.32723035 2.13151926 -27.57262337 0.71845827 -24.8125 -0.6875 C-24.01440918 -1.11224609 -23.21631836 -1.53699219 -22.39404297 -1.97460938 C-13.92690964 -6.20180977 -8.02193318 -4.30075484 0 0 Z " fill="#FCF5F0" transform="translate(297.8125,461.6875)"/>
<path d="M0 0 C1.09054687 0.52464844 2.18109375 1.04929687 3.3046875 1.58984375 C4.99078125 2.41548828 4.99078125 2.41548828 6.7109375 3.2578125 C8.40863281 4.07185547 8.40863281 4.07185547 10.140625 4.90234375 C20.1112155 9.73406356 20.1112155 9.73406356 23.0859375 12.3828125 C23.3984375 15.0078125 23.3984375 15.0078125 23.0859375 17.3828125 C21.28548793 19.18326207 18.55670339 18.51987794 16.12915039 18.52807617 C14.85435318 18.53445602 13.57955597 18.54083588 12.26612854 18.54740906 C10.86361733 18.54893761 9.46110561 18.55005164 8.05859375 18.55078125 C6.62991807 18.55399215 5.20124272 18.55735609 3.77256775 18.56086731 C0.77390785 18.56686489 -2.2247232 18.56870657 -5.22338867 18.56811523 C-9.07164199 18.56801359 -12.9197109 18.58166547 -16.76792049 18.59888744 C-19.71982172 18.60998956 -22.67167812 18.612035 -25.6235981 18.61150551 C-27.04261473 18.61268835 -28.46163241 18.61712704 -29.88062859 18.62483788 C-31.86302199 18.63460104 -33.84546916 18.63050503 -35.82788086 18.62573242 C-37.5221244 18.62786995 -37.5221244 18.62786995 -39.25059509 18.63005066 C-41.9140625 18.3828125 -41.9140625 18.3828125 -43.9140625 16.3828125 C-43.77856445 14.40576172 -43.77856445 14.40576172 -42.9140625 12.3828125 C-41.24682617 11.10595703 -41.24682617 11.10595703 -39.08203125 10.015625 C-38.28885498 9.60739502 -37.49567871 9.19916504 -36.6784668 8.77856445 C-35.82808838 8.35921631 -34.97770996 7.93986816 -34.1015625 7.5078125 C-33.24022705 7.07235107 -32.3788916 6.63688965 -31.49145508 6.18823242 C-29.76507535 5.31656011 -28.03617541 4.44985973 -26.3046875 3.58837891 C-24.24494967 2.54967533 -22.21615101 1.47508226 -20.1953125 0.36328125 C-19.174375 -0.18714844 -18.1534375 -0.73757813 -17.1015625 -1.3046875 C-16.22886719 -1.78292969 -15.35617187 -2.26117188 -14.45703125 -2.75390625 C-9.28786538 -4.50872293 -4.69564946 -2.26799792 0 0 Z " fill="#FBF8F5" transform="translate(698.9140625,459.6171875)"/>
<path d="M0 0 C1.1859375 0.00257813 2.371875 0.00515625 3.59375 0.0078125 C4.7796875 0.00523437 5.965625 0.00265625 7.1875 0 C10.09375 0.1328125 10.09375 0.1328125 11.09375 1.1328125 C11.19290795 3.02980099 11.22174314 4.93050037 11.22314453 6.83007812 C11.22629669 8.04804077 11.22944885 9.26600342 11.23269653 10.52087402 C11.23090675 11.86027055 11.2288558 13.19966674 11.2265625 14.5390625 C11.2272356 15.9028729 11.22820567 17.26668318 11.22946167 18.63049316 C11.23093838 21.49211771 11.22878497 24.3537111 11.22412109 27.21533203 C11.21842381 30.89099864 11.22170296 34.56659224 11.22769356 38.24225616 C11.23129991 41.05943354 11.23016025 43.87659348 11.22756577 46.69377136 C11.2268967 48.04941313 11.22772421 49.40505646 11.23004532 50.76069641 C11.23257301 52.65231294 11.22804014 54.54393499 11.22314453 56.43554688 C11.22234894 57.51396851 11.22155334 58.59239014 11.22073364 59.70349121 C11.09375 62.1328125 11.09375 62.1328125 10.09375 63.1328125 C7.92894203 63.2317419 5.76081215 63.2625235 3.59375 63.2578125 C2.4078125 63.26039063 1.221875 63.26296875 0 63.265625 C-2.90625 63.1328125 -2.90625 63.1328125 -3.90625 62.1328125 C-4.00540795 60.23582401 -4.03424314 58.33512463 -4.03564453 56.43554688 C-4.03879669 55.21758423 -4.04194885 53.99962158 -4.04519653 52.74475098 C-4.04340675 51.40535445 -4.0413558 50.06595826 -4.0390625 48.7265625 C-4.0397356 47.3627521 -4.04070567 45.99894182 -4.04196167 44.63513184 C-4.04343838 41.77350729 -4.04128497 38.9119139 -4.03662109 36.05029297 C-4.03092381 32.37462636 -4.03420296 28.69903276 -4.04019356 25.02336884 C-4.04379991 22.20619146 -4.04266025 19.38903152 -4.04006577 16.57185364 C-4.0393967 15.21621187 -4.04022421 13.86056854 -4.04254532 12.50492859 C-4.04507301 10.61331206 -4.04054014 8.72169001 -4.03564453 6.83007812 C-4.03484894 5.75165649 -4.03405334 4.67323486 -4.03323364 3.56213379 C-3.84767487 0.01221289 -3.60165243 0.16459164 0 0 Z " fill="#1A5182" transform="translate(1219.90625,381.8671875)"/>
<path d="M0 0 C4.23799059 3.15595044 5.6384684 5.98980257 7 11 C7.70994954 19.29811154 7.99422361 28.44701325 4 36 C0.74589561 39.10619056 -1.1160646 39.89144653 -5.5625 40.4375 C-10.46115197 39.8140352 -13.84414079 37.78703105 -17 34 C-18.5151607 29.45451791 -18.22537663 24.94904489 -18.25 20.1875 C-18.270625 19.20201172 -18.29125 18.21652344 -18.3125 17.20117188 C-18.34198968 11.71240523 -18.16202905 7.70557877 -15 3 C-10.22690636 -1.43215838 -6.04485966 -1.91829495 0 0 Z " fill="#F9F7F5" transform="translate(982,394)"/>
<path d="M0 0 C4.02396907 1.85721649 5.65882731 3.408634 7.875 7.25 C10.25329563 14.78126949 10.30967605 25.26787002 7.75 32.75 C5.71845569 36.522868 3.85685731 39.07157134 0 41 C-4.32426835 41.35444823 -6.9094332 41.53316599 -10.8125 39.625 C-16.31145874 33.02624951 -16.55001721 24.63765082 -16.3515625 16.34765625 C-15.71095836 10.24768128 -13.77348129 5.965209 -9.6875 1.4375 C-6.1263065 -0.46732443 -3.99246409 -0.56034584 0 0 Z " fill="#F9F7F5" transform="translate(855,393)"/>
<path d="M0 0 C4.07231705 2.85928644 5.75935393 5.7382638 6.71875 10.63671875 C7.81411282 19.84080914 7.94923836 29.94003835 2 37.5625 C-1.85376476 40.33239342 -5.37939467 40.39832805 -10 40 C-13.61838009 38.10857405 -15.29367514 35.94462979 -16.8125 32.25 C-19.36456035 23.39112385 -19.71367739 11.86394366 -15.1875 3.64453125 C-11.22031838 -1.8494933 -6.08457853 -1.77788955 0 0 Z " fill="#F8F6F4" transform="translate(919,394)"/>
<path d="M0 0 C3.3428623 1.33714492 4.64718111 2.45878267 6.609375 5.46875 C8.47022435 10.19405285 8.47647991 14.34304839 8.4375 19.375 C8.4674707 20.73625 8.4674707 20.73625 8.49804688 22.125 C8.49370612 28.14996302 7.62652487 33.05452931 4 38 C-0.03160965 40.68773977 -3.26423878 40.67415933 -8 40 C-12.04241873 37.67775946 -13.72883943 35.449062 -15 31 C-17.12459473 22.28916162 -17.23498297 12.07720542 -13 4 C-9.24393283 -0.3999644 -5.48080064 -0.90049666 0 0 Z " fill="#F9F6F4" transform="translate(1046,617)"/>
<path d="M0 0 C-3 2 -3 2 -13 2 C-13 11.9 -13 21.8 -13 32 C-16.75375 32.04125 -20.5075 32.0825 -24.375 32.125 C-25.55755371 32.14320801 -26.74010742 32.16141602 -27.95849609 32.18017578 C-28.88742676 32.1851709 -29.81635742 32.19016602 -30.7734375 32.1953125 C-32.20308838 32.21102295 -32.20308838 32.21102295 -33.66162109 32.22705078 C-36 32 -36 32 -38 30 C-38.25878906 27.32617188 -38.25878906 27.32617188 -38.265625 23.96875 C-38.26820313 22.76605469 -38.27078125 21.56335938 -38.2734375 20.32421875 C-38.26570313 19.06222656 -38.25796875 17.80023438 -38.25 16.5 C-38.25773437 15.23800781 -38.26546875 13.97601563 -38.2734375 12.67578125 C-38.27085937 11.47308594 -38.26828125 10.27039063 -38.265625 9.03125 C-38.26336914 7.92330078 -38.26111328 6.81535156 -38.25878906 5.67382812 C-38 3 -38 3 -36 1 C-24.48740319 -1.41172977 -11.68556075 -0.09213506 0 0 Z " fill="#E36E2F" transform="translate(316,480)"/>
<path d="M0 0 C2.84625 -0.061875 5.6925 -0.12375 8.625 -0.1875 C9.51010254 -0.21481201 10.39520508 -0.24212402 11.30712891 -0.27026367 C16.29657429 -0.32248272 19.68857445 0.2133469 24 3 C27.42872169 6.87986928 28.66819797 9.96663654 28.38671875 15.04296875 C27.55386022 19.25773768 25.22269306 22.00303489 21.96875 24.65625 C17.69132525 26.59234752 13.81681714 26.32109483 9.1875 26.1875 C6.155625 26.125625 3.12375 26.06375 0 26 C0 17.42 0 8.84 0 0 Z " fill="#F7F5F3" transform="translate(779,520)"/>
<path d="M0 0 C0.66 0.33 1.32 0.66 2 1 C0.68 1.99 -0.64 2.98 -2 4 C-1.67 5.32 -1.34 6.64 -1 8 C7.31001875 8.02314315 15.62002408 8.04092518 23.93006706 8.05181217 C27.7885133 8.05703667 31.64693753 8.06412649 35.50537109 8.07543945 C39.2271153 8.08628368 42.9488383 8.09228011 46.67059708 8.09487724 C48.09240172 8.09672871 49.51420517 8.10034403 50.93600082 8.10573006 C52.9233055 8.11296072 54.91063139 8.11340823 56.89794922 8.11352539 C58.03046112 8.115746 59.16297302 8.11796661 60.32980347 8.12025452 C62.97384777 8.18245956 62.97384777 8.18245956 65 7 C64 10 64 10 62 11 C60.11527141 11.15344209 58.22572126 11.24959571 56.3359375 11.31640625 C55.21445312 11.35830078 54.09296875 11.40019531 52.9375 11.44335938 C51.761875 11.48267578 50.58625 11.52199219 49.375 11.5625 C48.19164062 11.60568359 47.00828125 11.64886719 45.7890625 11.69335938 C42.85949672 11.79967426 39.92984412 11.90170642 37 12 C37 12.33 37 12.66 37 13 C33.37 13 29.74 13 26 13 C26 22.24 26 31.48 26 41 C29.63 41 33.26 41 37 41 C28.63768916 45.18115542 18.49029768 44.13556269 9.3125 44.0625 C7.66991211 44.05573242 7.66991211 44.05573242 5.99414062 44.04882812 C3.32936691 44.03719156 0.66471483 44.02084564 -2 44 C-2 43.67 -2 43.34 -2 43 C2.95 42.67 7.9 42.34 13 42 C13.33 32.1 13.66 22.2 14 12 C10.37 12 6.74 12 3 12 C-1.97142857 10.02857143 -1.97142857 10.02857143 -4 8 C-4.3125 5.625 -4.3125 5.625 -4 3 C-2 1.1875 -2 1.1875 0 0 Z " fill="#114C81" transform="translate(658,469)"/>
<path d="M0 0 C1.31153549 -0.00953201 2.62307098 -0.01906403 3.97434998 -0.02888489 C5.41266913 -0.02862347 6.85098831 -0.02768646 8.28930664 -0.02612305 C9.75899884 -0.03000856 11.22868991 -0.03434293 12.69837952 -0.03910828 C15.78105303 -0.04657671 18.86361204 -0.04627486 21.94628906 -0.04101562 C25.89877438 -0.03522153 29.85079101 -0.05214703 33.80319881 -0.0753603 C36.83922572 -0.09008547 39.87513946 -0.090971 42.91119576 -0.08785057 C44.36846406 -0.08836445 45.82573858 -0.09361466 47.28297234 -0.10366249 C49.32012236 -0.11598395 51.35736683 -0.10730803 53.39453125 -0.09765625 C54.55431992 -0.09828568 55.71410858 -0.0989151 56.90904236 -0.0995636 C59.76196289 0.2746582 59.76196289 0.2746582 61.67555237 1.66511536 C62.76196289 3.2746582 62.76196289 3.2746582 62.51196289 5.3996582 C61.76196289 7.2746582 61.76196289 7.2746582 60.76196289 8.2746582 C58.65058388 8.37414013 56.53584003 8.40265458 54.42211914 8.40405273 C53.42944534 8.40668121 53.42944534 8.40668121 52.41671753 8.40936279 C50.21927299 8.41378037 48.02190831 8.41084367 45.82446289 8.4074707 C44.30371078 8.40814377 42.78295877 8.40911382 41.26220703 8.41036987 C38.07103453 8.41184672 34.87988997 8.40969273 31.6887207 8.4050293 C27.58931759 8.39933201 23.48997993 8.40261108 19.39057922 8.40860176 C16.24914045 8.41220774 13.10771731 8.41106862 9.96627808 8.40847397 C8.45433545 8.4078048 6.94239143 8.40863277 5.43045044 8.41095352 C3.32086402 8.41348066 1.21138502 8.40963864 -0.89819336 8.40405273 C-2.10096924 8.40325714 -3.30374512 8.40246155 -4.54296875 8.40164185 C-7.23803711 8.2746582 -7.23803711 8.2746582 -8.23803711 7.2746582 C-8.42553711 4.8371582 -8.42553711 4.8371582 -8.23803711 2.2746582 C-5.47684132 -0.48653759 -3.86702945 0.01537276 0 0 Z " fill="#EEF3F1" transform="translate(468.238037109375,721.725341796875)"/>
<path d="M0 0 C1.29474243 -0.00630432 2.58948486 -0.01260864 3.92346191 -0.019104 C5.34285619 -0.01552433 6.76224924 -0.0114224 8.18164062 -0.00683594 C9.63130763 -0.00818263 11.08097419 -0.0101232 12.53063965 -0.01263428 C15.57043758 -0.01558536 18.61011805 -0.0112885 21.64990234 -0.00195312 C25.55083311 0.0094415 29.4514887 0.00288193 33.35240936 -0.00909805 C36.346355 -0.01631715 39.34023515 -0.01402852 42.33418274 -0.00884247 C43.77273084 -0.0075061 45.21128484 -0.00915324 46.64982605 -0.01380157 C48.65847666 -0.01886734 50.66714806 -0.00978038 52.67578125 0 C53.82002563 0.00159119 54.96427002 0.00318237 56.14318848 0.00482178 C58.83789062 0.25878906 58.83789062 0.25878906 60.83789062 2.25878906 C60.28233507 6.81434462 60.28233507 6.81434462 58.83789062 8.25878906 C56.78776216 8.35818532 54.73417671 8.38678459 52.68164062 8.38818359 C51.36357422 8.39133575 50.04550781 8.39448792 48.6875 8.3977356 C47.23762987 8.39594582 45.78776004 8.39389486 44.33789062 8.39160156 C42.861979 8.39227464 41.38606749 8.39324469 39.91015625 8.39450073 C36.81314033 8.39597754 33.7161532 8.3938237 30.61914062 8.38916016 C26.64080514 8.38346287 22.66253711 8.38674196 18.6842041 8.39273262 C15.63541146 8.3963387 12.58663492 8.39519943 9.5378418 8.39260483 C8.07055656 8.39193569 6.60326988 8.39276353 5.13598633 8.39508438 C3.08870469 8.39761163 1.04141796 8.39307967 -1.00585938 8.38818359 C-2.75672852 8.3869902 -2.75672852 8.3869902 -4.54296875 8.38577271 C-7.16210938 8.25878906 -7.16210938 8.25878906 -8.16210938 7.25878906 C-8.34960938 4.82128906 -8.34960938 4.82128906 -8.16210938 2.25878906 C-5.41199338 -0.49132693 -3.85024996 0.00535416 0 0 Z " fill="#FCF4EE" transform="translate(258.162109375,513.7412109375)"/>
<path d="M0 0 C1.94222694 -0.00956978 1.94222694 -0.00956978 3.9236908 -0.01933289 C5.34829674 -0.02086144 6.77290319 -0.02197547 8.19750977 -0.02270508 C9.64860569 -0.02591595 11.09970128 -0.02927989 12.55079651 -0.03279114 C15.59653474 -0.03878879 18.64224456 -0.04063039 21.68798828 -0.04003906 C25.59677458 -0.03993741 29.50537933 -0.05358942 33.41412258 -0.07081127 C36.41234682 -0.08191304 39.41052692 -0.08395883 42.40876961 -0.08342934 C43.85011483 -0.08461222 45.29146109 -0.08905118 46.73278618 -0.0967617 C48.74631297 -0.10652419 50.75989269 -0.10242903 52.7734375 -0.09765625 C54.49432838 -0.09979378 54.49432838 -0.09979378 56.24998474 -0.10197449 C58.95141602 0.14526367 58.95141602 0.14526367 60.95141602 2.14526367 C61.13891602 4.70776367 61.13891602 4.70776367 60.95141602 7.14526367 C59.12792074 8.96875895 56.2607543 8.28250673 53.81103516 8.29052734 C52.49619644 8.2969072 51.18135773 8.30328705 49.82667542 8.30986023 C48.37997474 8.31138878 46.93327357 8.31250281 45.48657227 8.31323242 C44.0130561 8.31644327 42.53954026 8.31980721 41.06602478 8.32331848 C37.97320822 8.3293162 34.88041963 8.33115773 31.78759766 8.33056641 C27.81827834 8.33046476 23.8491378 8.34411688 19.87986088 8.36133862 C16.83531363 8.37244004 13.79080985 8.37448619 10.74624443 8.37395668 C9.28257061 8.37513961 7.81889577 8.37957883 6.35524178 8.38728905 C4.3105816 8.39705087 2.26586931 8.39295655 0.22119141 8.38818359 C-0.94383408 8.38960861 -2.10885956 8.39103363 -3.30918884 8.39250183 C-6.04858398 8.14526367 -6.04858398 8.14526367 -8.04858398 6.14526367 C-7.28567843 -0.11056185 -6.0463097 0.02010294 0 0 Z " fill="#F1F1F1" transform="translate(662.048583984375,513.854736328125)"/>
<path d="M0 0 C4.5478125 -0.12375 4.5478125 -0.12375 9.1875 -0.25 C10.60712036 -0.30462402 10.60712036 -0.30462402 12.05541992 -0.36035156 C16.17372294 -0.41455702 18.44349776 -0.33347381 22.05078125 1.828125 C24.58295589 4.64954604 24.95829569 6.55793437 25.3125 10.3125 C24.88405326 15.36817155 22.85889855 18.06364735 19.40625 21.66015625 C15.76184023 23.68942987 12.33967973 23.3187383 8.25 23.1875 C5.5275 23.125625 2.805 23.06375 0 23 C0 15.41 0 7.82 0 0 Z " fill="#F6F4F3" transform="translate(779,485)"/>
<path d="M0 0 C0.66178253 -0.00175232 1.32356506 -0.00350464 2.00540161 -0.00531006 C4.20284615 -0.00972764 6.40021083 -0.00679094 8.59765625 -0.00341797 C10.11840836 -0.00409104 11.63916037 -0.00506108 13.15991211 -0.00631714 C16.35108461 -0.00779398 19.54222917 -0.00563999 22.73339844 -0.00097656 C26.83280155 0.00472073 30.93213921 0.00144165 35.03153992 -0.00454903 C38.17297869 -0.008155 41.31440183 -0.00701589 44.45584106 -0.00442123 C45.96778369 -0.00375207 47.47972771 -0.00458003 48.9916687 -0.00690079 C51.10125512 -0.00942792 53.21073412 -0.00558591 55.3203125 0 C56.52308838 0.00079559 57.72586426 0.00159119 58.96508789 0.00241089 C61.66015625 0.12939453 61.66015625 0.12939453 62.66015625 1.12939453 C62.78515625 3.62939453 62.78515625 3.62939453 62.66015625 6.12939453 C60.81218424 7.97736654 57.79219548 7.257154 55.3203125 7.25878906 C54.3276387 7.26141754 54.3276387 7.26141754 53.31491089 7.26409912 C51.11746635 7.2685167 48.92010167 7.26558 46.72265625 7.26220703 C45.20190414 7.2628801 43.68115213 7.26385015 42.16040039 7.2651062 C38.96922789 7.26658305 35.77808333 7.26442905 32.58691406 7.25976562 C28.48751095 7.25406834 24.38817329 7.25734741 20.28877258 7.26333809 C17.14733381 7.26694407 14.00591067 7.26580495 10.86447144 7.2632103 C9.35252881 7.26254113 7.84058479 7.2633691 6.3286438 7.26568985 C4.21905738 7.26821698 2.10957838 7.26437497 0 7.25878906 C-1.20277588 7.25799347 -2.40555176 7.25719788 -3.64477539 7.25637817 C-6.33984375 7.12939453 -6.33984375 7.12939453 -7.33984375 6.12939453 C-7.46484375 3.62939453 -7.46484375 3.62939453 -7.33984375 1.12939453 C-5.49187174 -0.71857748 -2.47188298 0.00163506 0 0 Z " fill="#FCFBF8" transform="translate(468.33984375,317.87060546875)"/>
<path d="M0 0 C0.91382452 11.55818797 0.91382452 11.55818797 -1.23046875 14.94140625 C-4.66495646 17.7822788 -8.00596404 18.88955156 -12.375 19.375 C-16 19 -16 19 -19 16.9375 C-21 14 -21 14 -21.125 10.4375 C-19.79257217 6.36619274 -18.61205231 5.21648664 -15 3 C-10.24691528 0.62345764 -5.28040337 0 0 0 Z " fill="#F5F5F3" transform="translate(864,530)"/>
<path d="M0 0 C0.89332573 11.29891614 0.89332573 11.29891614 -1.01953125 14.94140625 C-4.39333191 18.05496884 -8.44882612 18.88594003 -12.87890625 19.125 C-16.10725326 18.93474751 -17.70771058 18.29228942 -20 16 C-21.0625 12.625 -21.0625 12.625 -21 9 C-18.40332327 4.239426 -15.0166805 2.72988983 -10 1 C-6.50798403 0.24682008 -3.58863163 0 0 0 Z " fill="#F7F6F4" transform="translate(1147,416)"/>
<path d="M0 0 C1.48306641 0.02126953 1.48306641 0.02126953 2.99609375 0.04296875 C3.98738281 0.04941406 4.97867188 0.05585938 6 0.0625 C8.43359375 0.23046875 8.43359375 0.23046875 9.43359375 1.23046875 C9.47423207 2.8966399 9.47631475 4.5643497 9.43359375 6.23046875 C8.77359375 4.91046875 8.11359375 3.59046875 7.43359375 2.23046875 C4.46359375 1.90046875 1.49359375 1.57046875 -1.56640625 1.23046875 C-1.56640625 28.62046875 -1.56640625 56.01046875 -1.56640625 84.23046875 C1.73359375 84.23046875 5.03359375 84.23046875 8.43359375 84.23046875 C8.76359375 84.89046875 9.09359375 85.55046875 9.43359375 86.23046875 C7.28782738 86.25732813 5.1419673 86.27679963 2.99609375 86.29296875 C1.80113281 86.30457031 0.60617187 86.31617188 -0.625 86.328125 C-3.56640625 86.23046875 -3.56640625 86.23046875 -4.56640625 85.23046875 C-4.67211996 82.65484456 -4.71318748 80.105897 -4.71166992 77.52954102 C-4.71502853 76.72306122 -4.71838715 75.91658142 -4.72184753 75.08566284 C-4.7313864 72.40605145 -4.73330211 69.72650234 -4.734375 67.046875 C-4.73758553 65.1922147 -4.74094944 63.33755465 -4.74446106 61.4828949 C-4.75045968 57.58974622 -4.75230021 53.69661977 -4.75170898 49.8034668 C-4.75160732 44.80508197 -4.765261 39.80683906 -4.78248119 34.80848789 C-4.79357807 30.97644898 -4.79562891 27.14444462 -4.79509926 23.31239128 C-4.79628282 21.46913094 -4.80072549 19.62586981 -4.80843163 17.7826252 C-4.81818511 15.20857823 -4.81537201 12.63484257 -4.80932617 10.06079102 C-4.81494568 9.29344131 -4.82056519 8.52609161 -4.82635498 7.73548889 C-4.78255639 0.42948375 -4.78255639 0.42948375 0 0 Z " fill="#265586" transform="translate(953.56640625,381.76953125)"/>
<path d="M0 0 C3.3 0 6.6 0 10 0 C10 9.24 10 18.48 10 28 C6.7 28 3.4 28 0 28 C0 18.76 0 9.52 0 0 Z " fill="#F3F6F3" transform="translate(491,690)"/>
<path d="M0 0 C3.3 0 6.6 0 10 0 C10 9.24 10 18.48 10 28 C6.7 28 3.4 28 0 28 C0 18.76 0 9.52 0 0 Z " fill="#FAF9F6" transform="translate(467,690)"/>
<path d="M0 0 C3.3 0 6.6 0 10 0 C10 9.24 10 18.48 10 28 C6.7 28 3.4 28 0 28 C0 18.76 0 9.52 0 0 Z " fill="#FBF8F5" transform="translate(661,482)"/>
<path d="M0 0 C3.3 0 6.6 0 10 0 C10 9.24 10 18.48 10 28 C6.7 28 3.4 28 0 28 C0 18.76 0 9.52 0 0 Z " fill="#F4F5F1" transform="translate(491,285)"/>
<path d="M0 0 C2.82424288 2.19022918 4.41508603 3.83017207 6 7 C6 9.31 6 11.62 6 14 C-1.59 14 -9.18 14 -17 14 C-17 7.80505708 -16.6512315 6.59011959 -13 2 C-8.7741215 -0.81725233 -4.96375312 -0.79958384 0 0 Z " fill="#F9F7F5" transform="translate(1043,393)"/>
<path d="M0 0 C3.90616421 0.09215066 5.41986359 0.27156543 8.8125 2.375 C10.6875 5.4375 10.6875 5.4375 11.6875 14.4375 C4.0975 14.4375 -3.4925 14.4375 -11.3125 14.4375 C-11.3125 6.42669348 -8.55299637 0.19675364 0 0 Z " fill="#EFF0F1" transform="translate(1321.3125,392.5625)"/>
<path d="M0 0 C3.3 0 6.6 0 10 0 C10 8.91 10 17.82 10 27 C6.7 27 3.4 27 0 27 C0 18.09 0 9.18 0 0 Z " fill="#FCF9F7" transform="translate(684,483)"/>
<path d="M0 0 C3.3 0 6.6 0 10 0 C10 8.91 10 17.82 10 27 C6.7 27 3.4 27 0 27 C0 18.09 0 9.18 0 0 Z " fill="#FDFBF8" transform="translate(280,483)"/>
<path d="M0 0 C3.3 0 6.6 0 10 0 C10 8.91 10 17.82 10 27 C6.7 27 3.4 27 0 27 C0 18.09 0 9.18 0 0 Z " fill="#FEFBF9" transform="translate(257,483)"/>
<path d="M0 0 C2.32137945 2.26334497 3.5682467 4.13649339 5 7 C5 8.98 5 10.96 5 13 C-2.59 13 -10.18 13 -18 13 C-16.94113245 5.58792715 -16.77837624 4.77837624 -12 0 C-7.84052583 -1.38649139 -4.22544009 -1.13850013 0 0 Z " fill="#F8F7F5" transform="translate(870,617)"/>
<path d="M0 0 C2.97 0 5.94 0 9 0 C9 9.24 9 18.48 9 28 C6.03 28 3.06 28 0 28 C0 18.76 0 9.52 0 0 Z " fill="#FAF9F6" transform="translate(515,690)"/>
<path d="M0 0 C2.97 0 5.94 0 9 0 C9 9.24 9 18.48 9 28 C6.03 28 3.06 28 0 28 C0 18.76 0 9.52 0 0 Z " fill="#FCFAF7" transform="translate(516,285)"/>
<path d="M0 0 C2.97 0 5.94 0 9 0 C9 9.24 9 18.48 9 28 C6.03 28 3.06 28 0 28 C0 18.76 0 9.52 0 0 Z " fill="#FAF9F6" transform="translate(468,285)"/>
<path d="M0 0 C2.97 0 5.94 0 9 0 C9 8.91 9 17.82 9 27 C6.03 27 3.06 27 0 27 C0 18.09 0 9.18 0 0 Z " fill="#FCF9F7" transform="translate(708,483)"/>
<path d="M0 0 C2.97 0 5.94 0 9 0 C9 8.91 9 17.82 9 27 C6.03 27 3.06 27 0 27 C0 18.09 0 9.18 0 0 Z " fill="#FDFAF7" transform="translate(303,483)"/>
<path d="M0 0 C2.9375 1.5625 2.9375 1.5625 5 4 C5.6269883 7.90126052 5.57975697 10.01693383 3.5625 13.4375 C-0.23964277 15.75587974 -3.66240478 15.77201236 -8 15 C-10.5625 13.4375 -10.5625 13.4375 -12 11 C-12.5625 7.5 -12.5625 7.5 -12 4 C-8.45552524 -0.18892472 -5.33665143 -0.76237878 0 0 Z " fill="#164D80" transform="translate(1226,355)"/>
<path d="M0 0 C0.66 0 1.32 0 2 0 C2 26.73 2 53.46 2 81 C5.96 81 9.92 81 14 81 C14 77.04 14 73.08 14 69 C14.33 69 14.66 69 15 69 C15.02685938 71.14576637 15.04633088 73.29162645 15.0625 75.4375 C15.07410156 76.63246094 15.08570313 77.82742188 15.09765625 79.05859375 C15 82 15 82 14 83 C11.83519203 83.0989294 9.66706215 83.129711 7.5 83.125 C6.3140625 83.12757813 5.128125 83.13015625 3.90625 83.1328125 C1 83 1 83 0 82 C-0.09506052 79.44410112 -0.12556761 76.91532028 -0.11352539 74.35913086 C-0.11367142 73.55919205 -0.11381744 72.75925323 -0.1139679 71.93507385 C-0.11326855 69.27830335 -0.10547518 66.62160207 -0.09765625 63.96484375 C-0.09579215 62.12781309 -0.09436821 60.29078194 -0.09336853 58.45375061 C-0.08954275 53.60890338 -0.07971196 48.76408592 -0.06866455 43.91925049 C-0.05845172 38.97937422 -0.05387119 34.03949315 -0.04882812 29.09960938 C-0.03808974 19.39972647 -0.0210126 9.69986571 0 0 Z " fill="#073C75" transform="translate(953,476)"/>
<path d="M0 0 C0 0.99 0 1.98 0 3 C-1.32 3.33 -2.64 3.66 -4 4 C-4 13.9 -4 23.8 -4 34 C-4.33 34 -4.66 34 -5 34 C-5 24.76 -5 15.52 -5 6 C-8.3 6 -11.6 6 -15 6 C-15 5.67 -15 5.34 -15 5 C-21.72914969 4.23660153 -28.39457325 3.81407108 -35.1640625 3.68359375 C-36.08214691 3.66281265 -37.00023132 3.64203156 -37.94613647 3.62062073 C-40.83902516 3.55596044 -43.73199364 3.49663454 -46.625 3.4375 C-48.60287238 3.39423505 -50.58073709 3.35061843 -52.55859375 3.30664062 C-57.37231696 3.20036656 -62.18611929 3.09887181 -67 3 C-67 2.67 -67 2.34 -67 2 C-66.17536758 1.98969254 -65.35073517 1.97938507 -64.50111389 1.96876526 C-56.74594316 1.8709612 -48.99085547 1.76847166 -41.23581791 1.66066074 C-37.24846784 1.60539527 -33.26111048 1.55196963 -29.27368164 1.50268555 C-25.42868399 1.45509524 -21.58377818 1.40275464 -17.73888969 1.34705925 C-16.26883658 1.32661143 -14.79875826 1.30790244 -13.32866096 1.29092598 C-11.27638724 1.26693536 -9.22428853 1.2368741 -7.17211914 1.20532227 C-6.00185684 1.18977798 -4.83159454 1.1742337 -3.62586975 1.15821838 C-1.0747474 1.29584674 -1.0747474 1.29584674 0 0 Z " fill="#0E792C" transform="translate(530,279)"/>
<path d="M0 0 C0.33 0 0.66 0 1 0 C1 19.8 1 39.6 1 60 C-4 53.33333333 -4 53.33333333 -4 49 C-2.515 48.505 -2.515 48.505 -1 48 C-0.67 32.16 -0.34 16.32 0 0 Z " fill="#F1F3F4" transform="translate(813,583)"/>
<path d="M0 0 C7.26 0 14.52 0 22 0 C22 0.99 22 1.98 22 3 C14.41 3 6.82 3 -1 3 C-0.67 2.01 -0.34 1.02 0 0 Z " fill="#C8D6E0" transform="translate(1027,404)"/>
<path d="M0 0 C2.31954564 3.09272752 3.71720383 5.30240897 5.1875 8.75 C5.70376953 9.94882812 5.70376953 9.94882812 6.23046875 11.171875 C6.61138672 12.07679688 6.61138672 12.07679688 7 13 C6.01 13 5.02 13 4 13 C3.67 14.98 3.34 16.96 3 19 C2.67 19 2.34 19 2 19 C1.34 12.73 0.68 6.46 0 0 Z " fill="#F2F2F3" transform="translate(778,607)"/>
<path d="M0 0 C0 3.3 0 6.6 0 10 C-1.65 10.66 -3.3 11.32 -5 12 C-5 8.37 -5 4.74 -5 1 C-3 0 -3 0 0 0 Z " fill="#EDEDED" transform="translate(884,407)"/>
<path d="M0 0 C7.92 0.33 15.84 0.66 24 1 C24 1.33 24 1.66 24 2 C13.11 2.495 13.11 2.495 2 3 C2 3.99 2 4.98 2 6 C1.01 5.67 0.02 5.34 -1 5 C-0.67 3.35 -0.34 1.7 0 0 Z " fill="#F1F1F1" transform="translate(655,515)"/>
<path d="M0 0 C1.32 0 2.64 0 4 0 C4.33 2.31 4.66 4.62 5 7 C3.35 7.66 1.7 8.32 0 9 C0 6.03 0 3.06 0 0 Z " fill="#F1F3F4" transform="translate(930,607)"/>
<path d="M0 0 C0.66 0 1.32 0 2 0 C1.01 3.96 0.02 7.92 -1 12 C-2.88343932 8.23312136 -3.22057835 6.97041037 -3 3 C-2.34 3 -1.68 3 -1 3 C-0.67 2.01 -0.34 1.02 0 0 Z " fill="#F1F4F4" transform="translate(1267,415)"/>
<path d="M0 0 C1.58246707 -0.08153933 3.16616273 -0.13943557 4.75 -0.1875 C6.07257812 -0.23970703 6.07257812 -0.23970703 7.421875 -0.29296875 C10 0 10 0 14 3 C9.71 3 5.42 3 1 3 C0.67 2.01 0.34 1.02 0 0 Z " fill="#F5F4F2" transform="translate(952,470)"/>
<path d="M0 0 C2.49505962 2.49505962 2.35948376 3.67328888 2.625 7.125 C2.69976563 8.03507813 2.77453125 8.94515625 2.8515625 9.8828125 C2.90054688 10.58148437 2.94953125 11.28015625 3 12 C-2 5.43835616 -2 5.43835616 -2 1 C-1.34 0.67 -0.68 0.34 0 0 Z " fill="#E7EBEE" transform="translate(811,631)"/>
<path d="M0 0 C1.69433918 3.0469629 2.49467112 5.82821466 3.125 9.25 C3.29257812 10.14203125 3.46015625 11.0340625 3.6328125 11.953125 C3.75398437 12.62859375 3.87515625 13.3040625 4 14 C3.34 14 2.68 14 2 14 C1.46658816 12.42085985 0.94874237 10.83645613 0.4375 9.25 C0.14746094 8.36828125 -0.14257812 7.4865625 -0.44140625 6.578125 C-1.01697435 3.92165684 -0.89248371 2.52968894 0 0 Z " fill="#F0F4F5" transform="translate(937,623)"/>
<path d="M0 0 C1.37432457 3.81756824 0.67975039 7.07255329 0 11 C-0.66 11 -1.32 11 -2 11 C-2.33 12.32 -2.66 13.64 -3 15 C-4.48478748 12.03042504 -3.44702974 10.10118328 -2.625 6.9375 C-2.21121094 5.31134766 -2.21121094 5.31134766 -1.7890625 3.65234375 C-1 1 -1 1 0 0 Z " fill="#EBF0F2" transform="translate(1013,609)"/>
<path d="M0 0 C0.99 0.66 1.98 1.32 3 2 C3.6513089 6.09394163 3.13380371 7.77420624 1 11.375 C0.34 12.24125 -0.32 13.1075 -1 14 C-1.33 13.34 -1.66 12.68 -2 12 C-1.67 11.34 -1.34 10.68 -1 10 C-0.77377919 8.29636178 -0.59111527 6.58671299 -0.4375 4.875 C-0.35371094 3.96492188 -0.26992188 3.05484375 -0.18359375 2.1171875 C-0.12300781 1.41851562 -0.06242188 0.71984375 0 0 Z " fill="#E2E8EB" transform="translate(819,490)"/>
<path d="M0 0 C3.3 0 6.6 0 10 0 C9.67 1.98 9.34 3.96 9 6 C8.67 4.68 8.34 3.36 8 2 C5.36 2.33 2.72 2.66 0 3 C0 2.01 0 1.02 0 0 Z " fill="#CBD8E1" transform="translate(661,482)"/>
<path d="M0 0 C2.97 0 5.94 0 9 0 C8.67 0.99 8.34 1.98 8 3 C5.69 2.67 3.38 2.34 1 2 C1 3.65 1 5.3 1 7 C0.67 7 0.34 7 0 7 C0 4.69 0 2.38 0 0 Z " fill="#E1EDE4" transform="translate(516,285)"/>
<path d="M0 0 C0.33 0 0.66 0 1 0 C0.67 3.63 0.34 7.26 0 11 C-0.66 11 -1.32 11 -2 11 C-2.28571429 3.57142857 -2.28571429 3.57142857 0 0 Z " fill="#268443" transform="translate(441,274)"/>
<path d="M0 0 C0.66 0.33 1.32 0.66 2 1 C1.8125 2.8125 1.8125 2.8125 1 5 C-1.4375 6.8125 -1.4375 6.8125 -4 8 C-4.66 7.67 -5.32 7.34 -6 7 C-4.02 4.69 -2.04 2.38 0 0 Z M-8 8 C-6 9 -6 9 -6 9 Z " fill="#F3F5F5" transform="translate(815,433)"/>
<path d="M0 0 C1.5 1.125 1.5 1.125 3 3 C3.3125 6.0625 3.3125 6.0625 3 9 C2.34 9.66 1.68 10.32 1 11 C-0.17571451 7.32589215 -0.07366746 3.83070817 0 0 Z " fill="#E5ECEF" transform="translate(955,636)"/>
<path d="M0 0 C2.26171875 0.14453125 2.26171875 0.14453125 4.6875 0.8125 C5.49574219 1.02519531 6.30398438 1.23789062 7.13671875 1.45703125 C8.05904297 1.72580078 8.05904297 1.72580078 9 2 C9 2.33 9 2.66 9 3 C5.04 3 1.08 3 -3 3 C-2.01 2.01 -1.02 1.02 0 0 Z " fill="#D6E0E7" transform="translate(860,602)"/>
<path d="M0 0 C2.32472205 2.85306797 3.7508258 5.54074837 5 9 C3.68 8.67 2.36 8.34 1 8 C0.67 5.36 0.34 2.72 0 0 Z " fill="#E2E8EC" transform="translate(778,607)"/>
<path d="M0 0 C0.99 0.66 1.98 1.32 3 2 C2.67 3.32 2.34 4.64 2 6 C1.34 6 0.68 6 0 6 C-0.33 6.99 -0.66 7.98 -1 9 C-2.60031344 5.79937313 -1.03173691 3.27728194 0 0 Z " fill="#F0F4F2" transform="translate(819,423)"/>
<path d="M0 0 C0.99 0.33 1.98 0.66 3 1 C2.01 2.485 2.01 2.485 1 4 C1 4.99 1 5.98 1 7 C0.01 7.33 -0.98 7.66 -2 8 C-1.125 2.25 -1.125 2.25 0 0 Z " fill="#EFF1F3" transform="translate(1090,401)"/>
<path d="M0 0 C0 3.17370278 -0.30933342 4.3794668 -2 7 C-4.125 8.25 -4.125 8.25 -6 9 C-4.47291037 5.56404834 -2.40072955 2.88087546 0 0 Z " fill="#EBF0F3" transform="translate(1155,623)"/>
</svg>
